<svg width="130" height="131" viewBox="0 0 130 131" fill="none" xmlns="http://www.w3.org/2000/svg">
<path d="M107.452 75.09L105.649 75.9567V79.4233H109.059C108.943 77.8562 108.386 76.3539 107.452 75.09Z" fill="white"/>
<path d="M87.7117 68.1567H92.8022C93.0427 68.1567 93.2794 68.2172 93.4904 68.3326C93.7014 68.448 93.8799 68.6147 94.0096 68.8173C94.1393 69.0198 94.216 69.2517 94.2326 69.4917C94.2491 69.7316 94.2051 69.9719 94.1044 70.1903L94.0684 70.2685C93.8821 70.6729 93.5838 71.0155 93.2088 71.2556C92.8338 71.4957 92.3979 71.6233 91.9526 71.6233H86.2656L87.7117 68.1567Z" fill="#8FD8F2"/>
<path d="M91.9534 72.0567H86.2663C86.195 72.0567 86.1247 72.0391 86.0618 72.0054C85.9989 71.9717 85.9453 71.923 85.9057 71.8637C85.8662 71.8043 85.8419 71.7361 85.835 71.6651C85.8282 71.5941 85.8389 71.5224 85.8664 71.4566L87.3124 67.9899C87.3453 67.911 87.4008 67.8435 87.472 67.7961C87.5431 67.7486 87.6268 67.7233 87.7123 67.7233H92.8027C93.1159 67.7233 93.4241 67.8021 93.6989 67.9524C93.9736 68.1027 94.2062 68.3198 94.3751 68.5835C94.544 68.8473 94.6439 69.1493 94.6655 69.4617C94.6871 69.7742 94.6298 70.0871 94.4988 70.3716L94.4615 70.452C94.2396 70.9305 93.8857 71.3357 93.4414 71.62C92.9971 71.9042 92.4808 72.0557 91.9534 72.0567ZM86.9167 71.19H91.9534C92.3156 71.1893 92.6702 71.0852 92.9752 70.8898C93.2803 70.6944 93.5232 70.416 93.6753 70.0872L93.7126 70.0068C93.7823 69.8544 93.8126 69.6869 93.8008 69.5197C93.7889 69.3525 93.7352 69.1909 93.6446 69.0499C93.5541 68.9088 93.4295 68.7928 93.2824 68.7124C93.1353 68.6321 92.9703 68.59 92.8027 68.59H88.0009L86.9167 71.19Z" fill="#2D2D2D"/>
<path d="M71.0113 75.09L23.7832 75.5337L24.5372 84.6233L31.4714 84.6207L73.9571 85.7933L71.0113 75.09Z" fill="#8FD8F2"/>
<path d="M73.9567 86.2267H73.9449L31.4588 85.0541L24.5368 85.0567C24.4282 85.0566 24.3235 85.0158 24.2435 84.9422C24.1636 84.8686 24.1142 84.7676 24.1052 84.6593L23.3512 75.5695C23.3461 75.5101 23.3534 75.4503 23.3726 75.3939C23.3917 75.3374 23.4223 75.2856 23.4624 75.2415C23.5026 75.1975 23.5513 75.1622 23.6057 75.1378C23.6601 75.1135 23.719 75.1007 23.7786 75.1002L71.0063 74.6567H71.0106C71.1055 74.6566 71.1977 74.6878 71.2732 74.7453C71.3486 74.8028 71.4031 74.8834 71.4283 74.9749L74.3744 85.6783C74.3922 85.7426 74.3949 85.8102 74.3823 85.8757C74.3696 85.9413 74.342 86.003 74.3016 86.0561C74.2611 86.1092 74.209 86.1522 74.1492 86.1818C74.0894 86.2114 74.0235 86.2268 73.9567 86.2267ZM31.4706 84.1875L73.3838 85.344L70.6813 75.5263L24.2533 75.9626L24.9359 84.19L31.4706 84.1875Z" fill="#2D2D2D"/>
<path d="M94.8159 93.29C98.8844 93.29 102.183 89.9918 102.183 85.9233C102.183 81.8548 98.8844 78.5567 94.8159 78.5567C90.7474 78.5567 87.4492 81.8548 87.4492 85.9233C87.4492 89.9918 90.7474 93.29 94.8159 93.29Z" fill="#2D2D2D"/>
<path d="M94.8156 93.7233C93.2729 93.7233 91.7649 93.2659 90.4822 92.4088C89.1995 91.5517 88.1997 90.3335 87.6094 88.9083C87.019 87.483 86.8645 85.9147 87.1655 84.4016C87.4665 82.8886 88.2093 81.4987 89.3002 80.4079C90.391 79.317 91.7809 78.5742 93.2939 78.2732C94.807 77.9722 96.3753 78.1267 97.8006 78.7171C99.2258 79.3074 100.444 80.3072 101.301 81.5899C102.158 82.8726 102.616 84.3806 102.616 85.9233C102.613 87.9913 101.791 89.9738 100.328 91.4361C98.8661 92.8984 96.8836 93.7209 94.8156 93.7233ZM94.8156 78.99C93.4443 78.99 92.1039 79.3966 90.9637 80.1585C89.8235 80.9203 88.9348 82.0032 88.4101 83.2701C87.8853 84.537 87.748 85.931 88.0155 87.276C88.283 88.6209 88.9434 89.8563 89.913 90.8259C90.8827 91.7956 92.1181 92.4559 93.463 92.7234C94.8079 92.991 96.202 92.8537 97.4689 92.3289C98.7358 91.8041 99.8186 90.9155 100.58 89.7753C101.342 88.6351 101.749 87.2946 101.749 85.9233C101.747 84.0851 101.016 82.3228 99.7159 81.023C98.4161 79.7233 96.6538 78.9921 94.8156 78.99Z" fill="#2D2D2D"/>
<path d="M94.5299 82.6455C93.3899 82.6461 92.2868 83.0498 91.4158 83.7853C90.5448 84.5207 89.9619 85.5405 89.7702 86.6642C89.6472 85.969 89.678 85.2552 89.8604 84.5731C90.0428 83.891 90.3725 83.2572 90.8262 82.7162C91.2799 82.1752 91.8466 81.7401 92.4864 81.4416C93.1263 81.1431 93.8238 80.9884 94.5299 80.9884C95.2359 80.9884 95.9334 81.1431 96.5733 81.4416C97.2131 81.7401 97.7798 82.1752 98.2335 82.7162C98.6872 83.2572 99.0169 83.891 99.1993 84.5731C99.3817 85.2552 99.4125 85.969 99.2895 86.6642C99.0978 85.5405 98.5149 84.5207 97.6439 83.7853C96.7729 83.0498 95.6698 82.6461 94.5299 82.6455Z" fill="#8FD8F2"/>
<path d="M99.2891 87.0977C99.1868 87.0977 99.0877 87.0615 99.0095 86.9956C98.9312 86.9296 98.8789 86.838 98.8617 86.7371C98.6879 85.7139 98.1575 84.7853 97.3646 84.1157C96.5716 83.4461 95.5673 83.0788 94.5294 83.0788C93.4916 83.0788 92.4872 83.4461 91.6943 84.1157C90.9013 84.7853 90.371 85.7139 90.1972 86.7371C90.18 86.838 90.1277 86.9295 90.0496 86.9955C89.9714 87.0615 89.8725 87.0977 89.7702 87.0977C89.6679 87.0977 89.5689 87.0615 89.4907 86.9955C89.4126 86.9295 89.3603 86.838 89.3432 86.7371C89.2092 85.9796 89.2428 85.2018 89.4416 84.4587C89.6405 83.7155 89.9997 83.0249 90.4941 82.4354C90.9884 81.8459 91.6059 81.3719 92.3031 81.0467C93.0003 80.7215 93.7603 80.553 94.5296 80.553C95.299 80.553 96.0589 80.7215 96.7562 81.0467C97.4534 81.3719 98.0709 81.8459 98.5652 82.4354C99.0596 83.0249 99.4188 83.7155 99.6176 84.4587C99.8165 85.2018 99.8501 85.9796 99.7161 86.7371C99.6989 86.838 99.6466 86.9295 99.5685 86.9954C99.4903 87.0614 99.3914 87.0976 99.2891 87.0977ZM94.5296 81.4495C93.674 81.4504 92.837 81.7003 92.121 82.1688C91.405 82.6374 90.8409 83.3042 90.4976 84.088C90.9924 83.5005 91.6096 83.0282 92.306 82.7041C93.0025 82.3801 93.7613 82.2122 94.5294 82.2121C95.2976 82.212 96.0564 82.3798 96.7529 82.7037C97.4494 83.0275 98.0667 83.4997 98.5617 84.0872C98.2182 83.3036 97.654 82.6369 96.938 82.1685C96.222 81.7002 95.3852 81.4503 94.5296 81.4495Z" fill="#2D2D2D"/>
<path d="M94.3827 87.2233C95.34 87.2233 96.1161 86.4473 96.1161 85.49C96.1161 84.5327 95.34 83.7567 94.3827 83.7567C93.4255 83.7567 92.6494 84.5327 92.6494 85.49C92.6494 86.4473 93.4255 87.2233 94.3827 87.2233Z" fill="#8FD8F2"/>
<path d="M94.3825 87.6567C93.954 87.6567 93.5351 87.5296 93.1788 87.2915C92.8224 87.0534 92.5447 86.7151 92.3807 86.3192C92.2168 85.9232 92.1739 85.4876 92.2575 85.0673C92.3411 84.647 92.5474 84.261 92.8504 83.9579C93.1534 83.6549 93.5395 83.4486 93.9598 83.365C94.3801 83.2814 94.8157 83.3243 95.2116 83.4883C95.6075 83.6523 95.9459 83.93 96.184 84.2863C96.4221 84.6426 96.5492 85.0615 96.5492 85.49C96.5485 86.0644 96.32 86.6151 95.9138 87.0213C95.5076 87.4275 94.9569 87.656 94.3825 87.6567ZM94.3825 84.19C94.1254 84.19 93.874 84.2662 93.6602 84.4091C93.4465 84.5519 93.2798 84.755 93.1814 84.9925C93.083 85.2301 93.0573 85.4914 93.1075 85.7436C93.1576 85.9958 93.2814 86.2274 93.4632 86.4092C93.6451 86.5911 93.8767 86.7149 94.1289 86.765C94.381 86.8152 94.6424 86.7894 94.88 86.691C95.1175 86.5927 95.3206 86.426 95.4634 86.2122C95.6062 85.9985 95.6825 85.7471 95.6825 85.49C95.6821 85.1453 95.545 84.8149 95.3013 84.5712C95.0576 84.3275 94.7272 84.1904 94.3825 84.19Z" fill="#2D2D2D"/>
<path d="M29.4313 78.5567H32.4832C35.287 78.5567 37.5599 81.8548 37.5599 85.9233C37.5599 89.9918 35.287 93.29 32.4832 93.29H29.4313C26.6275 93.29 24.3545 89.9918 24.3545 85.9233C24.3545 81.8548 26.6276 78.5567 29.4313 78.5567Z" fill="#2D2D2D"/>
<path d="M32.483 93.7233H29.4311C26.3927 93.7233 23.9209 90.2241 23.9209 85.9233C23.9209 81.6226 26.3927 78.1233 29.4311 78.1233H32.483C35.5214 78.1233 37.9932 81.6226 37.9932 85.9233C37.9932 90.2241 35.5214 93.7233 32.483 93.7233ZM29.4311 78.99C26.8704 78.99 24.7876 82.1003 24.7876 85.9233C24.7876 89.7463 26.8704 92.8567 29.4311 92.8567H32.483C35.0437 92.8567 37.1266 89.7463 37.1266 85.9233C37.1266 82.1003 35.0437 78.99 32.483 78.99H29.4311Z" fill="#2D2D2D"/>
<path d="M29.3827 90.69C31.2973 90.69 32.8493 88.5559 32.8493 85.9233C32.8493 83.2908 31.2973 81.1567 29.3827 81.1567C27.4681 81.1567 25.916 83.2908 25.916 85.9233C25.916 88.5559 27.4681 90.69 29.3827 90.69Z" fill="white"/>
<path d="M29.3824 91.1233C27.2318 91.1233 25.4824 88.7908 25.4824 85.9233C25.4824 83.0559 27.2318 80.7233 29.3824 80.7233C31.533 80.7233 33.2824 83.0559 33.2824 85.9233C33.2824 88.7908 31.533 91.1233 29.3824 91.1233ZM29.3824 81.59C27.71 81.59 26.3491 83.5341 26.3491 85.9233C26.3491 88.3126 27.71 90.2567 29.3824 90.2567C31.0548 90.2567 32.4158 88.3126 32.4158 85.9233C32.4158 83.5341 31.0548 81.59 29.3824 81.59Z" fill="#2D2D2D"/>
<path d="M56.1568 78.5567H59.2087C62.0124 78.5567 64.2855 81.8548 64.2855 85.9233C64.2855 89.9918 62.0124 93.29 59.2087 93.29H56.1568C53.3529 93.29 51.0801 89.9918 51.0801 85.9233C51.0801 81.8548 53.3529 78.5567 56.1568 78.5567Z" fill="#2D2D2D"/>
<path d="M59.2082 93.7233H56.1563C53.1183 93.7233 50.6465 90.2241 50.6465 85.9233C50.6465 81.6226 53.1182 78.1233 56.1563 78.1233H59.2082C62.2466 78.1233 64.7184 81.6226 64.7184 85.9233C64.7184 90.2241 62.2466 93.7233 59.2082 93.7233ZM56.1563 78.99C53.596 78.99 51.5132 82.1003 51.5132 85.9233C51.5132 89.7463 53.596 92.8567 56.1563 92.8567H59.2082C61.7688 92.8567 63.8517 89.7463 63.8517 85.9233C63.8517 82.1003 61.7688 78.99 59.2082 78.99H56.1563Z" fill="#2D2D2D"/>
<path d="M56.1914 82.6455C54.5435 82.6455 53.1787 84.3836 52.9113 86.6642C52.8784 86.3939 52.8614 86.1218 52.8604 85.8495C52.8604 83.18 54.3517 81.016 56.1914 81.016C58.031 81.016 59.5223 83.18 59.5223 85.8495C59.5213 86.1218 59.5043 86.3939 59.4714 86.6642C59.204 84.3836 57.8392 82.6455 56.1914 82.6455Z" fill="#8FD8F2"/>
<path d="M59.4714 87.0977C59.3652 87.0977 59.2627 87.0587 59.1833 86.9881C59.104 86.9175 59.0534 86.8202 59.041 86.7147C58.7981 84.642 57.573 83.0787 56.1913 83.0787C54.8092 83.0787 53.5841 84.642 53.3417 86.7147C53.3294 86.8202 53.2788 86.9175 53.1994 86.9881C53.12 87.0587 53.0175 87.0977 52.9113 87.0977C52.8052 87.0977 52.7027 87.0587 52.6234 86.9882C52.544 86.9177 52.4933 86.8205 52.4809 86.7151C52.4458 86.4278 52.4277 86.1387 52.4268 85.8493C52.4268 82.9455 54.1157 80.5829 56.1913 80.5829C58.267 80.5829 59.9555 82.9455 59.9555 85.8493C59.9545 86.1384 59.9365 86.4272 59.9018 86.7142C59.8896 86.8198 59.839 86.9172 59.7596 86.9879C59.6803 87.0586 59.5777 87.0977 59.4714 87.0977ZM56.1913 81.4495C55.6373 81.5092 55.1127 81.7294 54.6821 82.0831C54.2514 82.4368 53.9335 82.9086 53.7674 83.4405C54.0466 83.0598 54.4115 82.7501 54.8326 82.5367C55.2537 82.3233 55.7192 82.212 56.1914 82.212C56.6635 82.212 57.129 82.3233 57.5501 82.5367C57.9713 82.7501 58.3362 83.0598 58.6153 83.4405C58.4492 82.9086 58.1312 82.4368 57.7006 82.0831C57.27 81.7294 56.7454 81.5092 56.1913 81.4495Z" fill="#2D2D2D"/>
<path d="M55.8156 87.2233C56.5336 87.2233 57.1156 86.4473 57.1156 85.49C57.1156 84.5327 56.5336 83.7567 55.8156 83.7567C55.0977 83.7567 54.5156 84.5327 54.5156 85.49C54.5156 86.4473 55.0977 87.2233 55.8156 87.2233Z" fill="#8FD8F2"/>
<path d="M55.8158 87.6567C55.3668 87.7577 54.8975 87.7167 54.4728 87.5395C54.0482 87.3622 53.689 87.0574 53.4451 86.6672C53.2012 86.277 53.0845 85.8206 53.1112 85.3612C53.1379 84.9018 53.3066 84.462 53.5941 84.1027C53.8816 83.7433 54.2736 83.4821 54.7159 83.3552C55.1583 83.2284 55.6291 83.242 56.0634 83.3944C56.4976 83.5467 56.8738 83.8301 57.14 84.2056C57.4061 84.581 57.5491 85.0298 57.5491 85.49C57.5994 86.0058 57.4464 86.5208 57.1227 86.9255C56.7989 87.3302 56.33 87.5925 55.8158 87.6567ZM55.8158 84.19C55.346 84.19 54.9491 84.7854 54.9491 85.49C54.9491 86.1946 55.346 86.79 55.8158 86.79C56.2855 86.79 56.6824 86.1946 56.6824 85.49C56.6824 84.7854 56.2855 84.19 55.8158 84.19Z" fill="#2D2D2D"/>
<path d="M53.9678 55.1567H78.1163C80.3427 55.1567 81.1277 55.5591 81.939 56.921C82.8961 58.5276 90.6201 71.6233 90.6201 71.6233H63.321L53.9678 55.1567Z" fill="#8FD8F2"/>
<path d="M90.6206 72.0567H63.3215C63.245 72.0566 63.1698 72.0363 63.1036 71.9978C63.0375 71.9593 62.9827 71.904 62.9449 71.8375L53.5918 55.3708C53.5543 55.3049 53.5348 55.2303 53.5352 55.1545C53.5355 55.0787 53.5558 55.0043 53.5939 54.9388C53.632 54.8732 53.6867 54.8188 53.7524 54.781C53.8181 54.7432 53.8926 54.7233 53.9684 54.7233H78.1166C80.4572 54.7233 81.3983 55.1664 82.312 56.6992C83.2688 58.306 90.9939 71.4033 90.9939 71.4033C91.0327 71.4691 91.0534 71.544 91.0539 71.6204C91.0544 71.6968 91.0347 71.7719 90.9968 71.8383C90.9589 71.9046 90.9042 71.9597 90.8381 71.9981C90.7721 72.0364 90.697 72.0567 90.6206 72.0567ZM63.5737 71.19H89.8619C88.2885 68.5227 82.3949 58.5328 81.5672 57.1426C80.8727 55.9776 80.2769 55.59 78.1166 55.59H54.7128L63.5737 71.19Z" fill="#2D2D2D"/>
<path d="M67.9487 93.29C72.0172 93.29 75.3154 89.9918 75.3154 85.9233C75.3154 81.8548 72.0172 78.5567 67.9487 78.5567C63.8802 78.5567 60.582 81.8548 60.582 85.9233C60.582 89.9918 63.8802 93.29 67.9487 93.29Z" fill="#259ED9"/>
<path d="M67.9484 93.7233C66.4057 93.7233 64.8977 93.2659 63.615 92.4088C62.3323 91.5517 61.3325 90.3335 60.7422 88.9083C60.1518 87.483 59.9974 85.9147 60.2983 84.4016C60.5993 82.8886 61.3422 81.4987 62.433 80.4079C63.5239 79.317 64.9137 78.5742 66.4267 78.2732C67.9398 77.9722 69.5081 78.1267 70.9334 78.7171C72.3586 79.3074 73.5768 80.3072 74.4339 81.5899C75.291 82.8726 75.7484 84.3806 75.7484 85.9233C75.746 87.9913 74.9235 89.9738 73.4612 91.4361C71.999 92.8984 70.0164 93.7209 67.9484 93.7233ZM67.9484 78.99C66.5772 78.99 65.2367 79.3966 64.0965 80.1585C62.9563 80.9203 62.0676 82.0032 61.5429 83.2701C61.0181 84.537 60.8808 85.931 61.1483 87.276C61.4159 88.6209 62.0762 89.8563 63.0458 90.8259C64.0155 91.7956 65.2509 92.4559 66.5958 92.7234C67.9407 92.991 69.3348 92.8537 70.6017 92.3289C71.8686 91.8041 72.9514 90.9155 73.7133 89.7753C74.4751 88.6351 74.8818 87.2946 74.8818 85.9233C74.8797 84.0851 74.1485 82.3228 72.8487 81.023C71.5489 79.7233 69.7866 78.9921 67.9484 78.99Z" fill="#2D2D2D"/>
<path d="M67.9493 90.69C70.5818 90.69 72.716 88.5559 72.716 85.9233C72.716 83.2908 70.5818 81.1567 67.9493 81.1567C65.3167 81.1567 63.1826 83.2908 63.1826 85.9233C63.1826 88.5559 65.3167 90.69 67.9493 90.69Z" fill="white"/>
<path d="M67.949 91.1233C66.9206 91.1233 65.9152 90.8184 65.0601 90.247C64.2049 89.6756 63.5384 88.8635 63.1449 87.9133C62.7513 86.9631 62.6483 85.9176 62.8489 84.9089C63.0496 83.9002 63.5448 82.9736 64.2721 82.2464C64.9993 81.5191 65.9259 81.0239 66.9346 80.8232C67.9433 80.6226 68.9888 80.7256 69.939 81.1192C70.8892 81.5127 71.7013 82.1792 72.2727 83.0344C72.8441 83.8895 73.149 84.8949 73.149 85.9233C73.1475 87.302 72.5992 88.6238 71.6243 89.5986C70.6495 90.5735 69.3277 91.1218 67.949 91.1233ZM67.949 81.59C67.092 81.59 66.2542 81.8441 65.5416 82.3203C64.8289 82.7965 64.2735 83.4732 63.9456 84.265C63.6176 85.0569 63.5318 85.9281 63.699 86.7687C63.8662 87.6093 64.2789 88.3814 64.8849 88.9875C65.4909 89.5935 66.2631 90.0062 67.1036 90.1734C67.9442 90.3406 68.8155 90.2548 69.6073 89.9268C70.3991 89.5988 71.0759 89.0434 71.5521 88.3308C72.0282 87.6182 72.2824 86.7804 72.2824 85.9233C72.281 84.7745 71.824 83.6731 71.0117 82.8607C70.1993 82.0483 69.0979 81.5914 67.949 81.59Z" fill="#2D2D2D"/>
<path d="M82.2502 57.7567H53.0479L63.3751 71.6233H90.5503L82.2502 57.7567Z" fill="white"/>
<path d="M90.5495 72.0567H63.3743C63.3068 72.0567 63.2402 72.0409 63.1799 72.0107C63.1196 71.9804 63.0672 71.9364 63.0268 71.8823L52.7001 58.0156C52.6521 57.9512 52.6229 57.8747 52.6159 57.7946C52.6089 57.7146 52.6243 57.6342 52.6603 57.5624C52.6964 57.4905 52.7516 57.4302 52.82 57.3879C52.8884 57.3457 52.9672 57.3234 53.0475 57.3233H82.2497C82.3246 57.3233 82.3983 57.3427 82.4635 57.3797C82.5287 57.4166 82.5832 57.4698 82.6217 57.5341L90.9214 71.4007C90.9608 71.4665 90.982 71.5416 90.9829 71.6182C90.9838 71.6949 90.9643 71.7704 90.9265 71.837C90.8887 71.9037 90.8339 71.9592 90.7676 71.9978C90.7014 72.0363 90.6261 72.0567 90.5495 72.0567ZM63.5918 71.19H89.7852L82.0038 58.19H53.9104L63.5918 71.19Z" fill="#2D2D2D"/>
<path d="M54.1144 55.1567C54.7527 55.1536 55.3759 55.3507 55.8963 55.7203C56.4168 56.0899 56.8082 56.6133 57.0157 57.217C57.6464 58.5206 63.4372 71.6233 63.4372 71.6233H90.7634C94.7344 71.8204 98.681 72.3598 102.559 73.2354C104.848 73.7826 106.509 74.3249 107.506 75.3357L105.649 75.9567V79.4233H109.116V88.09H81.5741H74.5352C74.0527 88.09 73.5899 87.8983 73.2487 87.5571C72.9075 87.2159 72.7158 86.7531 72.7158 86.2706V84.0883C72.7118 82.7104 72.1626 81.3901 71.1883 80.4158C70.214 79.4414 68.8937 78.8923 67.5158 78.8883C66.1379 78.8923 64.8176 79.4414 63.8433 80.4157C62.869 81.39 62.3198 82.7103 62.3158 84.0882V86.2071C62.3158 86.4544 62.2671 86.6992 62.1725 86.9277C62.0779 87.1561 61.9392 87.3637 61.7643 87.5385C61.5895 87.7134 61.3819 87.8521 61.1535 87.9467C60.925 88.0413 60.6802 88.09 60.4329 88.09H37.2222C36.9555 88.0884 36.6917 88.0342 36.446 87.9304C36.2003 87.8267 35.9776 87.6755 35.7904 87.4854C35.6033 87.2954 35.4555 87.0703 35.3556 86.823C35.2557 86.5757 35.2055 86.3112 35.2081 86.0445C35.2132 81.1009 32.814 78.6759 29.8808 78.6759C26.4185 78.6759 25.6942 81.9439 25.0215 84.0546C24.9666 84.2294 24.8647 84.3857 24.7271 84.5064C24.5894 84.6272 24.4212 84.7078 24.2408 84.7395C24.0604 84.7711 23.8748 84.7526 23.7042 84.6859C23.5336 84.6192 23.3847 84.5069 23.2736 84.3613L21.7271 82.3318C21.0711 81.4708 20.7158 80.4183 20.7158 79.3359V71.8614C20.7158 70.263 21.6735 70.0604 23.4936 69.3186C25.9116 68.3347 27.9877 66.6626 29.4643 64.5098C30.2309 63.3889 30.7187 62.6429 32.1579 60.4944C33.1805 58.9739 34.5674 57.7335 36.1923 56.8865L35.1622 56.2743C35.049 56.2071 34.961 56.1045 34.9118 55.9824C34.8625 55.8603 34.8547 55.7254 34.8896 55.5985C34.9245 55.4715 35.0001 55.3595 35.1048 55.2797C35.2095 55.1999 35.3375 55.1567 35.4691 55.1567H54.1144Z" fill="#8FD8F2"/>
<path d="M109.116 88.5233H74.5352C73.9379 88.5227 73.3653 88.2852 72.9429 87.8629C72.5205 87.4406 72.2829 86.868 72.2822 86.2708V84.0884C72.2822 83.4625 72.1589 82.8426 71.9194 82.2643C71.6799 81.686 71.3288 81.1605 70.8862 80.7178C69.9923 79.8239 68.7799 79.3216 67.5157 79.3216C66.2515 79.3215 65.0391 79.8236 64.1451 80.7175C63.2512 81.6114 62.7489 82.8238 62.7488 84.088V86.2073C62.7482 86.8213 62.504 87.41 62.0698 87.8442C61.6356 88.2784 61.0469 88.5227 60.4328 88.5233H37.222C36.9021 88.5241 36.5852 88.4614 36.2898 88.3388C35.9944 88.2161 35.7262 88.0361 35.5009 87.809C35.2691 87.5775 35.0855 87.3023 34.9609 86.9993C34.8362 86.6963 34.7729 86.3716 34.7747 86.0439C34.7773 83.5307 34.1417 81.5646 32.936 80.3577C32.5366 79.9553 32.0602 79.6373 31.5353 79.4228C31.0104 79.2084 30.4477 79.1018 29.8807 79.1093C26.9989 79.1093 26.2177 81.6476 25.5897 83.6873L25.4344 84.1862C25.3554 84.4364 25.2092 84.6602 25.0117 84.833C24.8143 85.0058 24.5731 85.1211 24.3146 85.1663C24.0561 85.2115 23.7902 85.1848 23.5458 85.0892C23.3014 84.9936 23.088 84.8328 22.9288 84.6242L21.3825 82.5946C20.6708 81.657 20.2845 80.5128 20.2822 79.3357V71.8616C20.2822 70.1283 21.2894 69.7288 22.8132 69.1241L23.3295 68.9176C25.6738 67.9628 27.6859 66.3405 29.116 64.252C29.5997 63.5441 29.9772 62.9783 30.568 62.0934L31.7977 60.2534C32.7159 58.8848 33.9218 57.7332 35.3312 56.879L34.9406 56.6467C34.7459 56.5309 34.5945 56.3544 34.5098 56.1443C34.4251 55.9341 34.4118 55.702 34.4718 55.4835C34.5318 55.2651 34.6619 55.0724 34.8421 54.935C35.0223 54.7977 35.2426 54.7233 35.4692 54.7233H54.1143C54.8343 54.7188 55.5378 54.9383 56.1275 55.3512C56.7172 55.7642 57.1639 56.3503 57.4058 57.0284C57.9906 58.2378 62.8813 69.295 63.7192 71.19H90.7632C94.7679 71.3901 98.7481 71.9333 102.66 72.8137C105.058 73.3876 106.756 73.9584 107.815 75.0316C107.866 75.084 107.904 75.1486 107.924 75.2195C107.943 75.2904 107.945 75.3651 107.928 75.4366C107.911 75.5082 107.875 75.5742 107.826 75.6285C107.776 75.6827 107.713 75.7234 107.644 75.7468L106.082 76.2685V78.99H109.116C109.172 78.99 109.229 79.0012 109.281 79.0229C109.334 79.0447 109.382 79.0766 109.422 79.1168C109.462 79.1571 109.494 79.2049 109.516 79.2575C109.538 79.3101 109.549 79.3664 109.549 79.4233V88.09C109.549 88.1469 109.538 88.2033 109.516 88.2559C109.494 88.3085 109.462 88.3562 109.422 88.3965C109.382 88.4367 109.334 88.4686 109.281 88.4904C109.229 88.5122 109.172 88.5234 109.116 88.5233ZM67.5155 78.4551C69.009 78.4568 70.4409 79.0509 71.497 80.107C72.5531 81.1631 73.1471 82.5949 73.1488 84.0884V86.2708C73.1493 86.6382 73.2956 86.9905 73.5555 87.2504C73.8154 87.5102 74.1677 87.6563 74.5352 87.6567H108.682V79.8567H105.649C105.592 79.8567 105.536 79.8455 105.483 79.8237C105.43 79.802 105.383 79.7701 105.342 79.7298C105.302 79.6896 105.27 79.6418 105.248 79.5892C105.227 79.5366 105.215 79.4802 105.216 79.4233V75.9567C105.216 75.8658 105.244 75.7773 105.297 75.7035C105.35 75.6298 105.425 75.5746 105.511 75.5458L106.631 75.1713C105.337 74.4312 103.926 73.9189 102.459 73.6567C98.6075 72.7904 94.6894 72.255 90.7471 72.0562L63.4369 72.0567C63.3529 72.0567 63.2708 72.0323 63.2004 71.9864C63.13 71.9406 63.0744 71.8753 63.0404 71.7985C62.9829 71.6673 57.2459 58.6877 56.6255 57.4058C56.0093 56.1329 55.2586 55.59 54.1143 55.59H35.4692C35.4325 55.5901 35.3968 55.6021 35.3676 55.6244C35.3384 55.6467 35.3173 55.6779 35.3076 55.7133C35.2979 55.7487 35.3 55.7863 35.3136 55.8203C35.3273 55.8544 35.3518 55.883 35.3833 55.9019L36.4133 56.5142C36.4794 56.5534 36.534 56.6096 36.5712 56.6769C36.6085 56.7441 36.6271 56.8201 36.6253 56.897C36.6234 56.9739 36.6011 57.0489 36.5607 57.1143C36.5202 57.1797 36.463 57.2332 36.3951 57.2692C34.8339 58.0834 33.501 59.2751 32.5179 60.7358L31.2886 62.5745C30.6957 63.4628 30.317 64.0307 29.8219 64.7543C28.2971 66.9773 26.1534 68.7038 23.6566 69.7199L23.1331 69.9298C21.5928 70.5408 21.1489 70.7656 21.1489 71.8616V79.3357C21.1508 80.3231 21.4748 81.2829 22.0718 82.0694L23.6181 84.0986C23.6795 84.1818 23.7631 84.2461 23.8594 84.284C23.9556 84.322 24.0606 84.3321 24.1623 84.3131C24.2656 84.2961 24.3621 84.2506 24.441 84.1816C24.5198 84.1127 24.5777 84.0231 24.6083 83.9229L24.7611 83.4325C25.3976 81.3657 26.359 78.2427 29.8807 78.2427C30.5617 78.2341 31.2375 78.3628 31.8678 78.6209C32.498 78.8791 33.0699 79.2615 33.5492 79.7453C34.9207 81.1181 35.6444 83.2966 35.6414 86.0448C35.6401 86.2585 35.6812 86.4703 35.7624 86.6681C35.8435 86.8658 35.963 87.0454 36.1141 87.1966C36.2591 87.3428 36.4317 87.4588 36.6219 87.5377C36.8121 87.6167 37.016 87.6571 37.222 87.6567H60.4328C60.8171 87.6563 61.1855 87.5035 61.4573 87.2317C61.729 86.96 61.8818 86.5916 61.8822 86.2073V84.088C61.8839 82.5945 62.478 81.1627 63.5341 80.1067C64.5902 79.0507 66.022 78.4567 67.5155 78.4551Z" fill="#2D2D2D"/>
<path d="M75.0283 74.6449C75.847 74.5036 76.6842 74.5068 77.5018 74.6544C79.3856 74.9498 84.3139 75.9567 84.3139 75.9567L85.2663 79.4234H75.9399C75.9399 79.4234 74.102 77.3555 72.6318 75.7095C73.3441 75.1853 74.1618 74.8221 75.0283 74.6449Z" fill="white"/>
<path d="M85.2658 79.8567H75.9394C75.8782 79.8567 75.8177 79.8438 75.7619 79.8186C75.7061 79.7935 75.6563 79.7569 75.6157 79.7111C75.6153 79.7111 73.7778 77.6434 72.3081 75.9981C72.2675 75.9525 72.2369 75.8987 72.2185 75.8404C72.2 75.7822 72.1941 75.7206 72.2011 75.6599C72.2081 75.5992 72.2278 75.5406 72.259 75.488C72.2903 75.4355 72.3322 75.3901 72.3822 75.3549C73.1454 74.7965 74.0199 74.4091 74.9462 74.2191C75.814 74.0672 76.7017 74.0696 77.5687 74.2263C79.4408 74.52 84.3509 75.5221 84.4004 75.5322C84.4788 75.5482 84.5513 75.5856 84.6097 75.6403C84.6681 75.695 84.7102 75.7648 84.7314 75.842L85.6835 79.3087C85.7012 79.373 85.7038 79.4405 85.6911 79.5059C85.6784 79.5714 85.6508 79.633 85.6103 79.6861C85.5699 79.7391 85.5178 79.7821 85.458 79.8117C85.3983 79.8413 85.3325 79.8567 85.2658 79.8567ZM76.1341 78.99H84.6975L83.9662 76.3282C82.9239 76.117 79.0392 75.3341 77.4341 75.0828C76.666 74.9422 75.8791 74.9381 75.1096 75.0705C74.4634 75.1983 73.8462 75.4441 73.289 75.7954C74.4498 77.0959 75.7304 78.5359 76.1341 78.99Z" fill="#2D2D2D"/>
<path d="M105.649 79.8567H84.8488C84.7339 79.8567 84.6237 79.811 84.5424 79.7297C84.4611 79.6485 84.4155 79.5383 84.4155 79.4233C84.4155 79.3084 84.4611 79.1982 84.5424 79.1169C84.6237 79.0357 84.7339 78.99 84.8488 78.99H105.215V76.39H83.9822C83.8672 76.39 83.757 76.3443 83.6757 76.2631C83.5945 76.1818 83.5488 76.0716 83.5488 75.9567C83.5488 75.8417 83.5945 75.7315 83.6757 75.6503C83.757 75.569 83.8672 75.5233 83.9822 75.5233H105.649C105.706 75.5233 105.762 75.5345 105.815 75.5562C105.867 75.578 105.915 75.6099 105.955 75.6502C105.996 75.6904 106.027 75.7382 106.049 75.7908C106.071 75.8434 106.082 75.8997 106.082 75.9567V79.4233C106.082 79.4802 106.071 79.5366 106.049 79.5892C106.027 79.6418 105.996 79.6896 105.955 79.7298C105.915 79.7701 105.867 79.802 105.815 79.8237C105.762 79.8455 105.706 79.8567 105.649 79.8567Z" fill="#2D2D2D"/>
<path d="M48.4488 73.79H44.9822C44.8672 73.79 44.757 73.7443 44.6758 73.6631C44.5945 73.5818 44.5488 73.4716 44.5488 73.3567C44.5488 73.2417 44.5945 73.1315 44.6758 73.0503C44.757 72.969 44.8672 72.9233 44.9822 72.9233H48.4488C48.5638 72.9233 48.674 72.969 48.7552 73.0503C48.8365 73.1315 48.8822 73.2417 48.8822 73.3567C48.8822 73.4716 48.8365 73.5818 48.7552 73.6631C48.674 73.7443 48.5638 73.79 48.4488 73.79Z" fill="#2D2D2D"/>
<path d="M35.4488 73.79H31.9822C31.8672 73.79 31.757 73.7443 31.6758 73.6631C31.5945 73.5818 31.5488 73.4716 31.5488 73.3567C31.5488 73.2417 31.5945 73.1315 31.6758 73.0503C31.757 72.969 31.8672 72.9233 31.9822 72.9233H35.4488C35.5638 72.9233 35.674 72.969 35.7552 73.0503C35.8365 73.1315 35.8822 73.2417 35.8822 73.3567C35.8822 73.4716 35.8365 73.5818 35.7552 73.6631C35.674 73.7443 35.5638 73.79 35.4488 73.79Z" fill="#2D2D2D"/>
<path d="M30.8508 68.7495C30.7666 68.5556 30.7319 68.3439 30.7496 68.1334C30.7674 67.9228 30.8372 67.72 30.9526 67.543L31.9934 65.9474C32.3256 65.4342 32.5872 65.0346 32.8136 64.69C33.2216 64.0694 33.5303 63.6043 33.9977 62.8748C36.7007 58.6553 38.555 57.7567 44.0799 57.7567H51.4804C53.9897 57.7567 55.6512 59.4161 56.5958 61.5854C56.9224 62.3353 57.4009 63.4608 57.9197 64.69C59.2401 67.8198 60.8213 71.6233 60.8213 71.6233H32.8797C32.6476 71.6233 32.4205 71.5555 32.2264 71.4282C32.0323 71.3008 31.8797 71.1196 31.7872 70.9066L30.8508 68.7495Z" fill="white"/>
<path d="M60.8205 72.0567H32.879C32.5623 72.0568 32.2525 71.9642 31.9877 71.7904C31.723 71.6167 31.5149 71.3693 31.389 71.0787L30.4529 68.9222C30.3397 68.6627 30.2928 68.3791 30.3165 68.097C30.3403 67.8148 30.4338 67.543 30.5887 67.3061L31.6297 65.7107C31.9619 65.1978 32.2239 64.7971 32.4507 64.4522L32.6416 64.1618C32.9619 63.6756 33.2416 63.2507 33.6322 62.6414C36.4019 58.3174 38.3545 57.3233 44.0792 57.3233H51.4797C53.8867 57.3233 55.8444 58.7757 56.9924 61.4125C57.3195 62.1636 57.799 63.2906 58.3183 64.5216C59.639 67.6522 61.2208 71.457 61.2208 71.457C61.2481 71.5229 61.2588 71.5945 61.2518 71.6654C61.2449 71.7364 61.2205 71.8045 61.1809 71.8638C61.1414 71.9231 61.0877 71.9718 61.0249 72.0054C60.962 72.039 60.8918 72.0566 60.8205 72.0567ZM31.2476 68.5769L32.1841 70.7338C32.2428 70.8694 32.3398 70.9848 32.4633 71.0658C32.5868 71.1469 32.7313 71.1901 32.879 71.19H60.1709C59.6737 69.9966 58.5218 67.2333 57.5201 64.8584C57.0017 63.6308 56.524 62.5073 56.1977 61.7587C55.4889 60.1307 54.0954 58.19 51.4797 58.19H44.0792C38.6786 58.19 36.9533 59.0634 34.3618 63.1086C33.9691 63.7222 33.6877 64.1496 33.3656 64.6384L33.1752 64.9282C32.9492 65.2719 32.6881 65.6709 32.3563 66.183L31.3149 67.7796C31.2385 67.8965 31.1924 68.0306 31.1806 68.1698C31.1689 68.3089 31.1919 68.4488 31.2476 68.5769Z" fill="#2D2D2D"/>
<path d="M44.0204 71.7367C43.9588 71.7366 43.8979 71.7234 43.8417 71.698C43.7856 71.6725 43.7355 71.6354 43.6949 71.5891C43.6542 71.5427 43.6238 71.4883 43.6058 71.4293C43.5878 71.3704 43.5826 71.3083 43.5905 71.2471L45.3357 57.9175C45.3431 57.8611 45.3615 57.8067 45.3899 57.7574C45.4183 57.7081 45.4562 57.6649 45.5013 57.6302C45.5464 57.5956 45.5979 57.5702 45.6528 57.5554C45.7078 57.5406 45.7651 57.5368 45.8215 57.5442C45.8779 57.5516 45.9323 57.5701 45.9816 57.5985C46.0309 57.6269 46.0741 57.6647 46.1087 57.7098C46.1434 57.7549 46.1688 57.8064 46.1836 57.8614C46.1983 57.9163 46.2021 57.9736 46.1947 58.03L44.4495 71.3597C44.436 71.4639 44.385 71.5597 44.306 71.6291C44.227 71.6984 44.1255 71.7367 44.0204 71.7367Z" fill="#2D2D2D"/>
<path d="M20.7158 72.49H21.9231C22.0986 72.49 22.2703 72.5415 22.4169 72.6381C22.5635 72.7347 22.6786 72.8721 22.7478 73.0334L23.9006 75.7188C23.9523 75.8392 23.9733 75.9707 23.9617 76.1013C23.9501 76.2319 23.9063 76.3576 23.8342 76.467C23.762 76.5765 23.6638 76.6664 23.5484 76.7286C23.433 76.7908 23.3039 76.8233 23.1728 76.8233H20.7158V72.49Z" fill="white"/>
<path d="M23.1729 77.2567H20.7156C20.6586 77.2567 20.6023 77.2455 20.5497 77.2237C20.4971 77.202 20.4493 77.1701 20.4091 77.1298C20.3688 77.0896 20.3369 77.0418 20.3151 76.9892C20.2934 76.9366 20.2822 76.8802 20.2822 76.8233V72.49C20.2822 72.4331 20.2934 72.3767 20.3151 72.3241C20.3369 72.2715 20.3688 72.2238 20.4091 72.1835C20.4493 72.1433 20.4971 72.1114 20.5497 72.0896C20.6023 72.0678 20.6586 72.0566 20.7156 72.0567H21.9229C22.1832 72.0564 22.4379 72.1327 22.6554 72.2759C22.8728 72.4191 23.0433 72.6231 23.1459 72.8624L24.299 75.5479C24.3791 75.7343 24.4116 75.9376 24.3936 76.1397C24.3757 76.3418 24.3079 76.5362 24.1963 76.7056C24.0846 76.875 23.9327 77.014 23.7541 77.1102C23.5755 77.2064 23.3758 77.2567 23.1729 77.2567ZM21.1489 76.39H23.1729C23.2323 76.39 23.2908 76.3753 23.3431 76.3472C23.3954 76.319 23.4399 76.2783 23.4726 76.2287C23.5053 76.1791 23.5251 76.1222 23.5304 76.0631C23.5356 76.0039 23.5261 75.9444 23.5026 75.8898L22.3494 73.2043C22.3137 73.1208 22.2542 73.0497 22.1784 72.9997C22.1026 72.9498 22.0137 72.9232 21.9229 72.9233H21.1489V76.39Z" fill="#2D2D2D"/>
<path d="M59.2244 68.1567H54.1339C53.8934 68.1567 53.6568 68.2172 53.4458 68.3326C53.2348 68.4481 53.0562 68.6147 52.9265 68.8173C52.7968 69.0198 52.7202 69.2517 52.7036 69.4917C52.687 69.7316 52.7311 69.9719 52.8317 70.1903L52.8678 70.2685C53.0541 70.6729 53.3524 71.0155 53.7273 71.2556C54.1023 71.4957 54.5383 71.6233 54.9835 71.6233H60.6705L59.2244 68.1567Z" fill="#8FD8F2"/>
<path d="M60.6702 72.0567H54.9831C54.4552 72.0556 53.9386 71.9038 53.4941 71.6191C53.0496 71.3343 52.6958 70.9285 52.4741 70.4494C52.3267 70.1573 52.2573 69.832 52.2726 69.5051C52.2879 69.1782 52.3873 68.8608 52.5613 68.5837C52.7297 68.3193 52.9621 68.1019 53.237 67.9515C53.5119 67.801 53.8204 67.7226 54.1338 67.7233H59.2242C59.3097 67.7233 59.3934 67.7486 59.4645 67.7961C59.5357 67.8435 59.5912 67.911 59.6241 67.9899L61.0701 71.4566C61.0975 71.5224 61.1083 71.5941 61.1015 71.6651C61.0946 71.7361 61.0703 71.8043 61.0307 71.8637C60.9912 71.923 60.9376 71.9717 60.8747 72.0054C60.8118 72.039 60.7415 72.0567 60.6702 72.0567ZM54.1338 68.59C53.966 68.59 53.8009 68.6323 53.6537 68.7128C53.5065 68.7934 53.3819 68.9097 53.2914 69.051C53.201 69.1923 53.1475 69.3541 53.1359 69.5215C53.1243 69.6889 53.1551 69.8565 53.2252 70.0089C53.3718 70.3553 53.6161 70.6515 53.9283 70.8612C54.2405 71.071 54.607 71.1852 54.9831 71.19H60.0198L58.9356 68.59H54.1338Z" fill="#2D2D2D"/>
<path d="M106.324 88.09L105.935 84.7663C105.874 84.2494 105.626 83.7728 105.237 83.427C104.849 83.0811 104.347 82.89 103.826 82.89H87.2834C86.6629 82.89 86.0551 83.0663 85.531 83.3985C85.0068 83.7306 84.5878 84.2048 84.3228 84.7659L82.7529 88.09H106.324Z" fill="#8FD8F2"/>
<path d="M106.324 88.5233H82.7526C82.6796 88.5233 82.6078 88.5049 82.5438 88.4697C82.4798 88.4345 82.4258 88.3837 82.3867 88.322C82.3476 88.2603 82.3247 88.1897 82.3202 88.1168C82.3156 88.044 82.3296 87.9711 82.3608 87.9051L83.9308 84.581C84.2323 83.9467 84.707 83.4107 85.3002 83.0348C85.8935 82.6589 86.5809 82.4585 87.2832 82.4567H103.826C104.453 82.4567 105.057 82.6868 105.525 83.1033C105.993 83.5198 106.292 84.0937 106.365 84.716L106.754 88.0397C106.762 88.1004 106.756 88.162 106.737 88.2203C106.719 88.2787 106.688 88.3325 106.648 88.3782C106.607 88.4239 106.557 88.4604 106.501 88.4854C106.446 88.5105 106.385 88.5234 106.324 88.5233ZM83.4365 87.6567H105.837L105.504 84.8167C105.456 84.4054 105.259 84.0261 104.949 83.7508C104.64 83.4756 104.24 83.3234 103.826 83.3233H87.2832C86.7451 83.3248 86.2184 83.4783 85.7639 83.7663C85.3094 84.0543 84.9456 84.465 84.7145 84.9509L83.4365 87.6567Z" fill="#2D2D2D"/>
<path d="M67.9487 93.29C72.0172 93.29 75.3154 89.9918 75.3154 85.9233C75.3154 81.8548 72.0172 78.5567 67.9487 78.5567C63.8802 78.5567 60.582 81.8548 60.582 85.9233C60.582 89.9918 63.8802 93.29 67.9487 93.29Z" fill="#2D2D2D"/>
<path d="M67.9484 93.7233C66.4057 93.7233 64.8977 93.2659 63.615 92.4088C62.3323 91.5517 61.3325 90.3335 60.7422 88.9083C60.1518 87.483 59.9974 85.9147 60.2983 84.4016C60.5993 82.8886 61.3422 81.4987 62.433 80.4079C63.5239 79.317 64.9137 78.5742 66.4267 78.2732C67.9398 77.9722 69.5081 78.1267 70.9334 78.7171C72.3586 79.3074 73.5768 80.3072 74.4339 81.5899C75.291 82.8726 75.7484 84.3806 75.7484 85.9233C75.746 87.9913 74.9235 89.9738 73.4612 91.4361C71.999 92.8984 70.0164 93.7209 67.9484 93.7233ZM67.9484 78.99C66.5772 78.99 65.2367 79.3966 64.0965 80.1585C62.9563 80.9203 62.0676 82.0032 61.5429 83.2701C61.0181 84.537 60.8808 85.931 61.1483 87.276C61.4159 88.6209 62.0762 89.8563 63.0458 90.8259C64.0155 91.7956 65.2509 92.4559 66.5958 92.7234C67.9407 92.991 69.3348 92.8537 70.6017 92.3289C71.8686 91.8041 72.9514 90.9155 73.7133 89.7753C74.4751 88.6351 74.8818 87.2946 74.8818 85.9233C74.8797 84.0851 74.1485 82.3228 72.8487 81.023C71.5489 79.7233 69.7866 78.9921 67.9484 78.99Z" fill="#2D2D2D"/>
<path d="M67.9493 90.69C70.5818 90.69 72.716 88.5559 72.716 85.9233C72.716 83.2908 70.5818 81.1567 67.9493 81.1567C65.3167 81.1567 63.1826 83.2908 63.1826 85.9233C63.1826 88.5559 65.3167 90.69 67.9493 90.69Z" fill="white"/>
<path d="M67.949 91.1233C66.9206 91.1233 65.9152 90.8184 65.0601 90.247C64.2049 89.6756 63.5384 88.8635 63.1449 87.9133C62.7513 86.9631 62.6483 85.9176 62.8489 84.9089C63.0496 83.9002 63.5448 82.9736 64.2721 82.2464C64.9993 81.5191 65.9259 81.0239 66.9346 80.8232C67.9433 80.6226 68.9888 80.7256 69.939 81.1192C70.8892 81.5127 71.7013 82.1792 72.2727 83.0344C72.8441 83.8895 73.149 84.8949 73.149 85.9233C73.1475 87.302 72.5992 88.6238 71.6243 89.5986C70.6495 90.5735 69.3277 91.1218 67.949 91.1233ZM67.949 81.59C67.092 81.59 66.2542 81.8441 65.5416 82.3203C64.8289 82.7965 64.2735 83.4732 63.9456 84.265C63.6176 85.0569 63.5318 85.9281 63.699 86.7687C63.8662 87.6093 64.2789 88.3814 64.8849 88.9875C65.4909 89.5935 66.2631 90.0062 67.1036 90.1734C67.9442 90.3406 68.8155 90.2548 69.6073 89.9268C70.3991 89.5988 71.0759 89.0434 71.5521 88.3308C72.0282 87.6182 72.2824 86.7804 72.2824 85.9233C72.281 84.7745 71.824 83.6731 71.0117 82.8607C70.1993 82.0483 69.0979 81.5914 67.949 81.59Z" fill="#2D2D2D"/>
<path d="M109.116 79.4233C109.167 78.6653 109.049 77.9055 108.771 77.1986C108.493 76.4917 108.061 75.8554 107.507 75.3357" fill="#8FD8F2"/>
<path d="M109.116 79.8562C109.1 79.8563 109.083 79.8553 109.067 79.8533C108.953 79.8403 108.849 79.7828 108.777 79.6932C108.705 79.6035 108.672 79.4892 108.684 79.3751C108.725 78.6857 108.615 77.9957 108.361 77.3535C108.107 76.7113 107.716 76.1323 107.215 75.6571C107.172 75.6189 107.138 75.5727 107.114 75.5212C107.09 75.4698 107.076 75.414 107.073 75.3571C107.067 75.2423 107.107 75.1299 107.185 75.0447C107.262 74.9596 107.37 74.9085 107.485 74.9029C107.599 74.8973 107.712 74.9375 107.797 75.0147C108.404 75.5794 108.876 76.2732 109.178 77.0449C109.481 77.8165 109.606 78.6462 109.545 79.4728C109.533 79.5783 109.483 79.6757 109.404 79.7464C109.325 79.8171 109.222 79.8562 109.116 79.8562Z" fill="#2D2D2D"/>
</svg>
