<svg width="76" height="76" viewBox="0 0 76 76" fill="none" xmlns="http://www.w3.org/2000/svg">
<path d="M31.3601 35.2145C30.6354 35.2145 29.9271 34.9996 29.3246 34.597C28.7221 34.1944 28.2525 33.6222 27.9752 32.9527C27.6979 32.2832 27.6253 31.5465 27.7667 30.8358C27.9081 30.1251 28.257 29.4723 28.7694 28.9599C29.2818 28.4475 29.9347 28.0986 30.6454 27.9572C31.3561 27.8158 32.0928 27.8884 32.7622 28.1657C33.4317 28.443 34.0039 28.9126 34.4065 29.5151C34.8091 30.1177 35.024 30.826 35.024 31.5507C35.0229 32.522 34.6365 33.4533 33.9496 34.1402C33.2627 34.8271 32.3314 35.2134 31.3601 35.2145Z" fill="#FFA452"/>
<path d="M31.3601 48.4332C30.6354 48.4332 29.9271 48.2183 29.3246 47.8157C28.7221 47.4131 28.2525 46.8409 27.9752 46.1714C27.6979 45.5019 27.6253 44.7652 27.7667 44.0545C27.9081 43.3438 28.257 42.691 28.7694 42.1786C29.2818 41.6662 29.9347 41.3173 30.6454 41.1759C31.3561 41.0345 32.0928 41.1071 32.7622 41.3844C33.4317 41.6617 34.0039 42.1313 34.4065 42.7338C34.8091 43.3363 35.024 44.0447 35.024 44.7694C35.0229 45.7407 34.6365 46.672 33.9496 47.3589C33.2627 48.0457 32.3314 48.4321 31.3601 48.4332Z" fill="#7EE0CA"/>
<path d="M44.5788 48.4332C43.8542 48.4332 43.1458 48.2183 42.5433 47.8157C41.9408 47.4131 41.4712 46.8409 41.1939 46.1714C40.9166 45.5019 40.8441 44.7652 40.9854 44.0545C41.1268 43.3438 41.4758 42.691 41.9882 42.1786C42.5006 41.6662 43.1534 41.3173 43.8641 41.1759C44.5748 41.0345 45.3115 41.1071 45.981 41.3844C46.6505 41.6617 47.2227 42.1313 47.6253 42.7338C48.0279 43.3363 48.2427 44.0447 48.2427 44.7694C48.2416 45.7407 47.8552 46.672 47.1684 47.3589C46.4815 48.0457 45.5502 48.4321 44.5788 48.4332Z" fill="#FFCC8F"/>
<path d="M44.5788 35.2145C43.8542 35.2145 43.1458 34.9996 42.5433 34.597C41.9408 34.1944 41.4712 33.6222 41.1939 32.9527C40.9166 32.2832 40.8441 31.5465 40.9854 30.8358C41.1268 30.1251 41.4758 29.4723 41.9882 28.9599C42.5006 28.4475 43.1534 28.0986 43.8641 27.9572C44.5748 27.8158 45.3115 27.8884 45.981 28.1657C46.6505 28.443 47.2227 28.9126 47.6253 29.5151C48.0279 30.1177 48.2427 30.826 48.2427 31.5507C48.2416 32.522 47.8552 33.4533 47.1684 34.1402C46.4815 34.8271 45.5502 35.2134 44.5788 35.2145Z" fill="#8FD8F2"/>
<path d="M31.3601 35.2145C30.6354 35.2145 29.9271 34.9996 29.3246 34.597C28.7221 34.1944 28.2525 33.6222 27.9752 32.9527C27.6979 32.2832 27.6253 31.5465 27.7667 30.8358C27.9081 30.1251 28.257 29.4723 28.7694 28.9599C29.2818 28.4475 29.9347 28.0986 30.6454 27.9572C31.3561 27.8158 32.0928 27.8884 32.7622 28.1657C33.4317 28.443 34.0039 28.9126 34.4065 29.5151C34.8091 30.1177 35.024 30.826 35.024 31.5507C35.0229 32.522 34.6365 33.4533 33.9496 34.1402C33.2627 34.8271 32.3314 35.2134 31.3601 35.2145Z" fill="#FFA452" stroke="#2D2D2D" stroke-width="0.5"/>
<path d="M31.3601 48.4332C30.6354 48.4332 29.9271 48.2183 29.3246 47.8157C28.7221 47.4131 28.2525 46.8409 27.9752 46.1714C27.6979 45.5019 27.6253 44.7652 27.7667 44.0545C27.9081 43.3438 28.257 42.691 28.7694 42.1786C29.2818 41.6662 29.9347 41.3173 30.6454 41.1759C31.3561 41.0345 32.0928 41.1071 32.7622 41.3844C33.4317 41.6617 34.0039 42.1313 34.4065 42.7338C34.8091 43.3363 35.024 44.0447 35.024 44.7694C35.0229 45.7407 34.6365 46.672 33.9496 47.3589C33.2627 48.0457 32.3314 48.4321 31.3601 48.4332Z" fill="#7EE0CA" stroke="#2D2D2D" stroke-width="0.5"/>
<path d="M44.5788 48.4332C43.8542 48.4332 43.1458 48.2183 42.5433 47.8157C41.9408 47.4131 41.4712 46.8409 41.1939 46.1714C40.9166 45.5019 40.8441 44.7652 40.9854 44.0545C41.1268 43.3438 41.4758 42.691 41.9882 42.1786C42.5006 41.6662 43.1534 41.3173 43.8641 41.1759C44.5748 41.0345 45.3115 41.1071 45.981 41.3844C46.6505 41.6617 47.2227 42.1313 47.6253 42.7338C48.0279 43.3363 48.2427 44.0447 48.2427 44.7694C48.2416 45.7407 47.8552 46.672 47.1684 47.3589C46.4815 48.0457 45.5502 48.4321 44.5788 48.4332Z" fill="#FFCC8F" stroke="#2D2D2D" stroke-width="0.5"/>
<path d="M44.5788 35.2145C43.8542 35.2145 43.1458 34.9996 42.5433 34.597C41.9408 34.1944 41.4712 33.6222 41.1939 32.9527C40.9166 32.2832 40.8441 31.5465 40.9854 30.8358C41.1268 30.1251 41.4758 29.4723 41.9882 28.9599C42.5006 28.4475 43.1534 28.0986 43.8641 27.9572C44.5748 27.8158 45.3115 27.8884 45.981 28.1657C46.6505 28.443 47.2227 28.9126 47.6253 29.5151C48.0279 30.1177 48.2427 30.826 48.2427 31.5507C48.2416 32.522 47.8552 33.4533 47.1684 34.1402C46.4815 34.8271 45.5502 35.2134 44.5788 35.2145Z" fill="#8FD8F2" stroke="#2D2D2D" stroke-width="0.5"/>
</svg>
