<svg width="169" height="20" viewBox="0 0 169 20" fill="none" xmlns="http://www.w3.org/2000/svg">
<g clip-path="url(#clip0_22_2)">
<path d="M82.0266 10.8504C83.8277 10.6629 85.1178 9.81384 85.8456 8.30685C86.441 7.0792 87.3599 5.0907 87.3673 5.06864C88.2788 3.18673 87.9995 2.03627 87.6025 1.39304C87.0071 0.441061 85.8419 0.102905 84.9561 0.102905H75.9325L66.5928 19.9512H71.2828L74.8592 12.1552H77.3733C77.5831 12.1678 77.7875 12.2268 77.9718 12.3278C78.1562 12.4289 78.3158 12.5695 78.4392 12.7396C78.7406 13.2395 78.6598 14.004 78.1856 15.0111C77.0535 17.4407 76.153 19.9585 76.153 19.9585H80.9092C81.0409 19.3022 81.2341 18.6599 81.4863 18.0398C81.8539 17.1724 82.9565 14.4304 82.9565 14.4047C83.8644 12.1809 82.7397 11.2914 82.0266 10.8504ZM81.5304 7.5754C81.1335 8.41344 80.5233 8.83981 79.711 8.83981H76.4397L78.9207 3.43668H82.5008C82.5956 3.44109 82.6883 3.46645 82.7722 3.51094C82.8561 3.55542 82.9291 3.61793 82.986 3.69397C83.1293 3.92921 83.0778 4.3225 82.8389 4.8334L82.0193 6.55359L81.5304 7.5754Z" fill="#2D95E5"/>
<path d="M31.9654 10.8504C33.7664 10.6593 35.0492 9.81019 35.7843 8.30319C36.3798 7.07554 37.2987 5.08704 37.3097 5.06499C38.2213 3.18308 37.9419 2.03262 37.5449 1.38939C36.9495 0.452108 35.7843 0.113953 34.8948 0.113953H25.8602L16.5205 19.9622H21.2216L24.798 12.1662H27.3157C27.5256 12.1789 27.73 12.2378 27.9143 12.3389C28.0986 12.4399 28.2582 12.5806 28.3817 12.7507C28.6867 13.2506 28.6022 14.0151 28.1281 15.0222C26.996 17.4518 26.0954 19.9696 26.0954 19.9696H30.8517C30.9816 19.3133 31.1736 18.6708 31.4251 18.0509C31.7926 17.1834 32.8953 14.4414 32.8953 14.4157C33.8069 12.181 32.6785 11.2915 31.9654 10.8504ZM31.4692 7.57175C31.0722 8.41346 30.4621 8.82145 29.6534 8.82145H26.3821L28.933 3.41832H32.4395C32.5344 3.42274 32.6271 3.4481 32.711 3.49258C32.7949 3.53707 32.8678 3.59957 32.9247 3.67561C33.0681 3.91085 33.0166 4.30414 32.7777 4.81505L31.958 6.53523L31.4692 7.57175Z" fill="#2D95E5"/>
<path d="M53.9897 5.05028C55.6327 1.52905 53.7728 0 51.4058 0H45.7086C43.3121 0 41.6213 1.13209 40.5333 3.45874C39.9489 4.70845 38.9749 6.76678 37.8465 9.11549L35.4647 14.1364C33.0719 19.1719 36.6519 20.0173 38.4052 20.0173H42.0036C45.6093 20.0541 47.3846 19.0359 48.7777 16.1322C49.7113 14.1915 51.0051 11.4201 52.3798 8.48329L53.9897 5.05028ZM49.3107 4.49159L44.5324 14.6693C43.8671 16.0734 43.4297 16.3123 42.3969 16.3123H40.3312C39.9636 16.3123 39.2285 16.2131 39.7798 15.0112C40.5811 13.2836 43.9406 6.04269 44.6279 4.58715C45.0947 3.59474 45.5799 3.39626 46.2121 3.39626H48.785C49.2739 3.3742 49.7113 3.64252 49.3107 4.49159Z" fill="#2D95E5"/>
<path d="M61.8037 8.94273L60.2453 12.2508H62.7153L61.3259 15.2537C60.9216 16.1249 60.6459 16.3013 59.6939 16.3013H57.2386C56.5035 16.3013 56.2462 15.9337 56.6873 15.0001C57.246 13.8166 61.6567 4.60552 61.6567 4.60552C62.1566 3.55797 62.4543 3.39992 63.2262 3.39992H65.7623C66.3762 3.39992 66.707 3.68294 66.2953 4.5026C66.2034 4.68271 65.1926 6.89174 65.1926 6.89174L69.6658 6.92482L70.684 4.73784C72.1726 1.54007 70.842 0.044098 67.7619 -9.1682e-06H62.9027C61.7453 -0.0302345 60.6047 0.281853 59.6239 0.897134C58.6431 1.51242 57.8658 2.40351 57.3893 3.45873C56.5035 5.34431 52.3243 14.1364 52.3243 14.1364C50.7953 17.3525 51.6811 20.0173 55.8639 20.0173H59.5983C62.5829 20.0467 64.0495 19.5799 65.4132 16.5953L68.8939 8.96846L61.8037 8.94273Z" fill="#2D95E5"/>
<path d="M129.229 0.0514526L119.878 19.9291H124.697L134.106 0.0514526H129.229Z" fill="#2D95E5"/>
<path d="M146.052 0.0551147L135.139 17.5657L140.66 0.0551147H135.606L130.975 19.9291H137.495L151.121 0.0551147H146.052Z" fill="#2D95E5"/>
<path d="M108.726 13.0337L108.322 5.68247C108.274 4.79665 108.491 3.59473 110.112 3.59473H113.368L115.041 0.0514526H109.491C105.08 0.0514526 103.61 2.73832 103.768 5.89566C103.871 7.82535 104.135 14.1033 104.135 14.1033C104.201 15.6176 103.621 16.3086 102.206 16.3086H98.4932L96.8281 19.9144H102.746C106.671 19.9365 108.983 17.3746 108.726 13.0337Z" fill="#2D95E5"/>
<path d="M119.419 5.68986C119.371 4.80404 119.588 3.60212 121.209 3.60212H124.465L126.138 0.0588379H120.587C116.941 0.0588379 114.655 2.05101 114.864 5.90304C114.971 7.83273 115.232 14.1107 115.232 14.1107C115.302 15.625 114.721 16.316 113.302 16.316H109.686L108.021 19.9218H113.843C118.158 19.9218 120.047 16.8343 119.819 13.019L119.419 5.68986Z" fill="#2D95E5"/>
<path d="M92.1789 11.0452H98.2106L99.758 7.73712H93.7043L95.6303 3.6131H101.879L103.518 0.0881958H92.631L83.3428 19.9364H95.1047L96.7992 16.338H89.6648L92.1789 11.0452Z" fill="#2D95E5"/>
<path d="M143.436 19.9328H155.197L156.907 16.338H149.758L152.272 11.0452H158.303L159.851 7.73712H153.797L155.723 3.6131H161.972L163.607 0.0881958H152.724L143.436 19.9328Z" fill="#2D95E5"/>
<path d="M19.1337 9.60435C19.527 8.79205 20.3062 7.10862 21.192 5.1532C22.7468 1.71284 20.8245 0.121304 18.7845 0.113953H9.86017L0.597656 19.9916H5.41269L8.64722 13.03C8.64722 13.03 11.3672 13.03 13.3373 13.03C16.3403 13.0521 17.9097 12.1295 19.1337 9.60435ZM16.649 4.99515C15.7816 6.83295 15.12 8.20763 15.0464 8.35833C14.6568 9.18901 14.0981 9.55657 13.2564 9.55657H10.2351L13.091 3.37054H16.1197C16.785 3.37421 17.2592 3.70869 16.649 4.99515Z" fill="#2D95E5"/>
<path d="M167.499 1.43717C167.502 1.36023 167.485 1.28379 167.45 1.21543C167.415 1.14708 167.362 1.0892 167.297 1.04756C167.161 0.978509 167.008 0.948005 166.856 0.959344H166.069V2.76774H166.29V1.93338H166.694L167.212 2.76774H167.473L166.929 1.93338C167.249 1.92603 167.499 1.79371 167.499 1.43717ZM166.635 1.76063H166.297V1.10269H166.815C167.04 1.10269 167.286 1.13577 167.286 1.41512C167.275 1.80106 166.882 1.76063 166.635 1.76063Z" fill="#2D95E5"/>
<path d="M166.673 0.246281C166.353 0.245554 166.039 0.33988 165.773 0.517307C165.506 0.694735 165.298 0.947279 165.176 1.24295C165.053 1.53861 165.02 1.86409 165.083 2.17815C165.145 2.49221 165.299 2.78072 165.525 3.00712C165.752 3.23352 166.04 3.38762 166.354 3.44991C166.668 3.51219 166.994 3.47986 167.29 3.357C167.585 3.23413 167.838 3.02627 168.015 2.75975C168.193 2.49323 168.287 2.18005 168.286 1.85987C168.285 1.43222 168.115 1.02236 167.813 0.719963C167.51 0.417566 167.1 0.247252 166.673 0.246281ZM166.673 3.286C166.392 3.28383 166.118 3.19855 165.885 3.04093C165.653 2.88331 165.472 2.6604 165.366 2.4003C165.26 2.1402 165.234 1.85454 165.29 1.57934C165.346 1.30414 165.482 1.05172 165.682 0.853883C165.881 0.65605 166.135 0.521665 166.41 0.467667C166.686 0.413669 166.971 0.442475 167.231 0.550454C167.49 0.658433 167.711 0.840751 167.867 1.07443C168.023 1.30811 168.106 1.58268 168.106 1.86355C168.107 2.05159 168.07 2.23786 167.998 2.41159C167.926 2.58532 167.82 2.74305 167.687 2.87568C167.554 3.0083 167.395 3.11317 167.221 3.18424C167.047 3.2553 166.861 3.29114 166.673 3.28968V3.286Z" fill="#2D95E5"/>
</g>
<defs>
<clipPath id="clip0_22_2">
<rect width="168.88" height="19.9989" fill="white"/>
</clipPath>
</defs>
</svg>
