<svg width="130" height="131" viewBox="0 0 130 131" fill="none" xmlns="http://www.w3.org/2000/svg">
<path d="M47.5603 55.5533H53.627V45.1533H47.5603V55.5533Z" fill="#8FD8F2"/>
<path d="M53.627 55.9867H47.5603C47.5034 55.9867 47.447 55.9755 47.3944 55.9538C47.3418 55.932 47.294 55.9001 47.2538 55.8598C47.2136 55.8196 47.1816 55.7718 47.1599 55.7192C47.1381 55.6666 47.1269 55.6103 47.127 55.5533V45.1533C47.1269 45.0964 47.1381 45.0401 47.1599 44.9875C47.1816 44.9349 47.2136 44.8871 47.2538 44.8469C47.294 44.8066 47.3418 44.7747 47.3944 44.7529C47.447 44.7312 47.5034 44.72 47.5603 44.72H53.627C53.6839 44.72 53.7402 44.7312 53.7928 44.7529C53.8454 44.7747 53.8932 44.8066 53.9334 44.8469C53.9737 44.8871 54.0056 44.9349 54.0274 44.9875C54.0491 45.0401 54.0603 45.0964 54.0603 45.1533V55.5533C54.0603 55.6103 54.0491 55.6666 54.0274 55.7192C54.0056 55.7718 53.9737 55.8196 53.9334 55.8598C53.8932 55.9001 53.8454 55.932 53.7928 55.9537C53.7402 55.9755 53.6839 55.9867 53.627 55.9867ZM47.9936 55.12H53.1936V45.5867H47.9936V55.12Z" fill="#2D2D2D"/>
<path d="M32.7001 95.4047C27.5097 95.4047 25.9036 91.1199 27.357 86.0354C28.5438 81.8836 28.5701 79.0436 25.9667 74.6075C20.0293 64.4904 32.1732 57.3672 38.1407 65.1108C45.7844 75.0297 32.7001 95.4047 32.7001 95.4047Z" fill="#2D2D2D"/>
<path d="M32.7 95.8381C31.7453 95.8992 30.7899 95.7315 29.9131 95.349C29.0364 94.9665 28.2636 94.3802 27.6591 93.6388C26.2905 91.8247 26.0353 89.0821 26.9401 85.9167C28.0856 81.9096 28.1762 79.2284 25.5931 74.8265C22.4447 69.4623 24.2237 64.9098 27.3836 62.777C29.1371 61.6023 31.2809 61.1611 33.3557 61.5479C35.4306 61.9347 37.2714 63.1187 38.4839 64.8463C41.7047 69.0256 41.7771 75.6923 38.6938 84.1263C37.1947 88.137 35.3095 91.9927 33.0647 95.6388C33.0255 95.6999 32.9715 95.7502 32.9078 95.785C32.8441 95.8199 32.7726 95.8381 32.7 95.8381ZM31.8578 62.2806C30.4371 62.2812 29.0485 62.7041 27.8686 63.4955C25.0443 65.4015 23.4768 69.5085 26.3405 74.3881C29.0674 79.0342 28.9625 81.996 27.7738 86.1545C26.9575 89.0106 27.1678 91.5484 28.351 93.1171C28.8441 93.7251 29.4728 94.2092 30.1866 94.5307C30.9004 94.8522 31.6796 95.0021 32.4617 94.9685C33.7812 92.831 44.7681 74.4203 37.7975 65.3753C37.1192 64.4301 36.2282 63.6577 35.1965 63.1201C34.1647 62.5825 33.0211 62.295 31.8578 62.2806Z" fill="#2D2D2D"/>
<path d="M90.8938 37.3533H64.3747L58.6815 51.22H40.797L32.8271 73.1831V95.42H105.627V73.1857L90.9718 37.9193" fill="#8FD8F2"/>
<path d="M105.627 95.8533H32.8269C32.77 95.8534 32.7136 95.8422 32.661 95.8204C32.6084 95.7987 32.5606 95.7667 32.5204 95.7265C32.4802 95.6862 32.4482 95.6385 32.4265 95.5859C32.4047 95.5333 32.3935 95.4769 32.3936 95.42V73.1829C32.3936 73.1326 32.4024 73.0826 32.4194 73.0352L40.3899 51.0723C40.4203 50.9886 40.4757 50.9163 40.5486 50.8652C40.6215 50.8141 40.7084 50.7867 40.7974 50.7867H58.391L63.974 37.1887C64.0066 37.1092 64.0621 37.0413 64.1335 36.9934C64.2048 36.9456 64.2888 36.92 64.3747 36.92H90.8935C90.9718 36.92 91.0486 36.9412 91.1157 36.9814C91.1829 37.0215 91.2379 37.0791 91.275 37.148C91.3121 37.2169 91.3299 37.2945 91.3264 37.3727C91.323 37.4509 91.2984 37.5267 91.2553 37.592C91.3061 37.636 91.3459 37.6912 91.3717 37.7532L106.027 73.0196C106.049 73.0723 106.06 73.1288 106.06 73.1859V95.42C106.06 95.4769 106.049 95.5333 106.027 95.5859C106.006 95.6385 105.974 95.6862 105.933 95.7265C105.893 95.7667 105.845 95.7987 105.793 95.8204C105.74 95.8422 105.684 95.8534 105.627 95.8533ZM33.2602 94.9867H105.194V73.2722L90.5711 38.0859C90.5315 37.9908 90.5272 37.8847 90.5588 37.7867H64.6655L59.0825 51.3846C59.0499 51.4641 58.9944 51.5321 58.923 51.58C58.8516 51.6278 58.7676 51.6534 58.6817 51.6533H41.1013L33.2602 73.2591V94.9867Z" fill="#2D2D2D"/>
<path d="M50.1605 95.42H32.8271V73.2013L40.797 51.2555L50.1605 72.7636V95.42Z" fill="white"/>
<path d="M50.1602 95.8533H32.8269C32.77 95.8534 32.7136 95.8422 32.661 95.8204C32.6084 95.7987 32.5606 95.7667 32.5204 95.7265C32.4802 95.6862 32.4482 95.6385 32.4265 95.5859C32.4047 95.5333 32.3935 95.4769 32.3936 95.42V73.2011C32.3936 73.1506 32.4024 73.1004 32.4198 73.053L40.3903 51.1079C40.42 51.0265 40.4733 50.9558 40.5434 50.905C40.6136 50.8542 40.6973 50.8255 40.7839 50.8226C40.8707 50.8192 40.9565 50.8423 41.0299 50.8888C41.1033 50.9353 41.1608 51.003 41.1948 51.0829L50.5576 72.5904C50.5813 72.6451 50.5936 72.704 50.5936 72.7635V95.42C50.5936 95.4769 50.5824 95.5333 50.5606 95.5859C50.5389 95.6385 50.5069 95.6862 50.4667 95.7265C50.4265 95.7667 50.3787 95.7986 50.3261 95.8204C50.2735 95.8422 50.2171 95.8534 50.1602 95.8533ZM33.2602 94.9867H49.7269V72.8537L40.8338 52.4252L33.2602 73.2773V94.9867Z" fill="#2D2D2D"/>
<path d="M77.0271 95.8533C76.9702 95.8534 76.9138 95.8422 76.8612 95.8204C76.8086 95.7987 76.7608 95.7667 76.7206 95.7265C76.6803 95.6862 76.6484 95.6385 76.6267 95.5859C76.6049 95.5333 76.5937 95.4769 76.5938 95.42V71.1533C76.5938 71.0384 76.6394 70.9282 76.7207 70.8469C76.8019 70.7657 76.9122 70.72 77.0271 70.72C77.142 70.72 77.2522 70.7657 77.3335 70.8469C77.4148 70.9282 77.4604 71.0384 77.4604 71.1533V95.42C77.4604 95.4769 77.4493 95.5333 77.4275 95.5859C77.4057 95.6385 77.3738 95.6862 77.3336 95.7265C77.2933 95.7667 77.2455 95.7986 77.1929 95.8204C77.1404 95.8422 77.084 95.8534 77.0271 95.8533Z" fill="#2D2D2D"/>
<path d="M50.8457 74.62L52.5366 66.469L64.4905 37.3533H91.1006L75.8005 74.62H50.8457Z" fill="#259ED9"/>
<path d="M75.8004 75.0533H50.8465C50.7821 75.0533 50.7186 75.0389 50.6605 75.0112C50.6023 74.9836 50.5511 74.9433 50.5105 74.8934C50.4698 74.8435 50.4408 74.7852 50.4255 74.7227C50.4102 74.6602 50.409 74.595 50.422 74.532L52.1122 66.3812L64.0898 37.1887C64.1224 37.1092 64.1779 37.0412 64.2493 36.9934C64.3207 36.9455 64.4046 36.92 64.4906 36.92H91.1012C91.1724 36.92 91.2424 36.9375 91.3052 36.9709C91.368 37.0044 91.4216 37.0529 91.4612 37.112C91.5008 37.1711 91.5253 37.2391 91.5324 37.3099C91.5395 37.3807 91.529 37.4521 91.5019 37.518L76.2011 74.7846C76.1685 74.8641 76.113 74.9321 76.0417 74.98C75.9703 75.0278 75.8863 75.0534 75.8004 75.0533ZM51.3784 74.1867H75.5097L90.455 37.7867H64.7813L52.9374 66.6338L51.3784 74.1867Z" fill="#2D2D2D"/>
<path d="M50.6821 74.62L40.7969 51.22H72.4146L62.8076 74.62H50.6821Z" fill="#8FD8F2"/>
<path d="M62.8077 75.0533H50.6824C50.5972 75.0534 50.5139 75.0283 50.4429 74.9812C50.3719 74.934 50.3164 74.867 50.2834 74.7884L40.3984 51.3884C40.3706 51.3226 40.3595 51.2509 40.3661 51.1797C40.3728 51.1085 40.3969 51.0401 40.4364 50.9805C40.4759 50.9209 40.5296 50.872 40.5926 50.8382C40.6556 50.8044 40.7259 50.7867 40.7974 50.7867H72.4151C72.4863 50.7866 72.5563 50.8041 72.6191 50.8376C72.6819 50.8711 72.7355 50.9195 72.7751 50.9787C72.8147 51.0378 72.8392 51.1057 72.8463 51.1765C72.8534 51.2473 72.8429 51.3188 72.8158 51.3846L63.2085 74.7846C63.1758 74.8641 63.1203 74.9321 63.049 74.9799C62.9776 75.0278 62.8937 75.0533 62.8077 75.0533ZM50.9697 74.1867H62.517L71.7689 51.6533H41.4508L50.9697 74.1867Z" fill="#2D2D2D"/>
<path d="M63.1599 95.8533C63.103 95.8534 63.0466 95.8422 62.994 95.8204C62.9414 95.7987 62.8936 95.7667 62.8534 95.7265C62.8132 95.6862 62.7812 95.6385 62.7595 95.5859C62.7377 95.5333 62.7265 95.4769 62.7266 95.42V74.62C62.7266 74.5051 62.7722 74.3949 62.8535 74.3136C62.9347 74.2323 63.045 74.1867 63.1599 74.1867C63.2748 74.1867 63.385 74.2323 63.4663 74.3136C63.5476 74.3949 63.5932 74.5051 63.5932 74.62V95.42C63.5933 95.4769 63.5821 95.5333 63.5603 95.5859C63.5385 95.6385 63.5066 95.6862 63.4664 95.7265C63.4261 95.7667 63.3784 95.7987 63.3258 95.8204C63.2732 95.8422 63.2168 95.8534 63.1599 95.8533Z" fill="#2D2D2D"/>
<path d="M36.2934 91.0867H46.6934V76.3533H36.2934V91.0867Z" fill="white"/>
<path d="M46.6937 91.52H36.2937C36.2368 91.52 36.1804 91.5089 36.1278 91.4871C36.0752 91.4653 36.0274 91.4334 35.9872 91.3932C35.947 91.3529 35.915 91.3051 35.8933 91.2525C35.8715 91.1999 35.8603 91.1436 35.8604 91.0867V76.3533C35.8603 76.2964 35.8715 76.2401 35.8933 76.1875C35.915 76.1349 35.947 76.0871 35.9872 76.0469C36.0274 76.0066 36.0752 75.9747 36.1278 75.9529C36.1804 75.9312 36.2368 75.92 36.2937 75.92H46.6937C46.7506 75.92 46.807 75.9312 46.8596 75.9529C46.9121 75.9747 46.9599 76.0066 47.0002 76.0469C47.0404 76.0871 47.0723 76.1349 47.0941 76.1875C47.1159 76.2401 47.1271 76.2964 47.127 76.3533V91.0867C47.1271 91.1436 47.1159 91.1999 47.0941 91.2525C47.0723 91.3051 47.0404 91.3529 47.0002 91.3932C46.9599 91.4334 46.9121 91.4653 46.8596 91.4871C46.807 91.5089 46.7506 91.52 46.6937 91.52ZM36.727 90.6533H46.2604V76.7867H36.727V90.6533Z" fill="#2D2D2D"/>
<path d="M85.6938 95.42H96.0938V77.22H85.6938V95.42Z" fill="white"/>
<path d="M96.0931 95.8533H85.6931C85.6362 95.8534 85.5798 95.8422 85.5272 95.8204C85.4746 95.7987 85.4269 95.7667 85.3866 95.7265C85.3464 95.6862 85.3144 95.6385 85.2927 95.5859C85.2709 95.5333 85.2597 95.4769 85.2598 95.42V77.22C85.2597 77.1631 85.2709 77.1067 85.2927 77.0541C85.3144 77.0015 85.3464 76.9538 85.3866 76.9135C85.4269 76.8733 85.4746 76.8413 85.5272 76.8196C85.5798 76.7978 85.6362 76.7866 85.6931 76.7867H96.0931C96.15 76.7866 96.2064 76.7978 96.259 76.8196C96.3116 76.8414 96.3593 76.8733 96.3996 76.9135C96.4398 76.9538 96.4717 77.0015 96.4935 77.0541C96.5153 77.1067 96.5265 77.1631 96.5264 77.22V95.42C96.5265 95.4769 96.5153 95.5333 96.4935 95.5859C96.4717 95.6385 96.4398 95.6862 96.3996 95.7265C96.3593 95.7667 96.3116 95.7986 96.259 95.8204C96.2064 95.8422 96.15 95.8534 96.0931 95.8533ZM86.1264 94.9867H95.6598V77.6533H86.1264V94.9867Z" fill="#2D2D2D"/>
<path d="M41.4939 91.52C41.437 91.52 41.3806 91.5089 41.328 91.4871C41.2754 91.4653 41.2276 91.4334 41.1874 91.3932C41.1471 91.3529 41.1152 91.3051 41.0935 91.2525C41.0717 91.1999 41.0605 91.1436 41.0605 91.0867V76.3533C41.0605 76.2384 41.1062 76.1282 41.1875 76.0469C41.2687 75.9657 41.379 75.92 41.4939 75.92C41.6088 75.92 41.719 75.9657 41.8003 76.0469C41.8816 76.1282 41.9272 76.2384 41.9272 76.3533V91.0867C41.9272 91.1436 41.9161 91.1999 41.8943 91.2525C41.8725 91.3051 41.8406 91.3529 41.8004 91.3932C41.7601 91.4334 41.7123 91.4653 41.6597 91.4871C41.6072 91.5089 41.5508 91.52 41.4939 91.52Z" fill="#2D2D2D"/>
<path d="M46.6937 87.1867H36.2937C36.1788 87.1867 36.0685 87.141 35.9873 87.0598C35.906 86.9785 35.8604 86.8683 35.8604 86.7533C35.8604 86.6384 35.906 86.5282 35.9873 86.4469C36.0685 86.3657 36.1788 86.32 36.2937 86.32H46.6937C46.8086 86.32 46.9188 86.3657 47.0001 86.4469C47.0814 86.5282 47.127 86.6384 47.127 86.7533C47.127 86.8683 47.0814 86.9785 47.0001 87.0598C46.9188 87.141 46.8086 87.1867 46.6937 87.1867Z" fill="#2D2D2D"/>
<path d="M90.8934 58.5565C92.2184 58.5052 93.5098 58.9813 94.4845 59.8804C95.4592 60.7796 96.0378 62.0284 96.0934 63.3533H85.6934C85.7489 62.0284 86.3275 60.7796 87.3022 59.8804C88.2769 58.9813 89.5683 58.5052 90.8934 58.5565Z" fill="white"/>
<path d="M96.0931 63.7867H85.6931C85.6362 63.7867 85.5798 63.7755 85.5272 63.7538C85.4746 63.732 85.4269 63.7001 85.3866 63.6598C85.3464 63.6196 85.3144 63.5718 85.2927 63.5192C85.2709 63.4666 85.2597 63.4103 85.2598 63.3533C85.3655 61.9316 86.0049 60.6024 87.0497 59.6324C88.0945 58.6624 89.4674 58.1233 90.8931 58.1233C92.3188 58.1233 93.6917 58.6624 94.7365 59.6324C95.7813 60.6024 96.4207 61.9316 96.5264 63.3533C96.5265 63.4103 96.5153 63.4666 96.4935 63.5192C96.4717 63.5718 96.4398 63.6196 96.3996 63.6598C96.3593 63.7001 96.3116 63.732 96.259 63.7537C96.2064 63.7755 96.15 63.7867 96.0931 63.7867ZM86.1497 62.92H95.6365C95.4274 61.815 94.8391 60.8176 93.9731 60.1001C93.1071 59.3826 92.0177 58.99 90.8931 58.99C89.7685 58.99 88.6791 59.3826 87.8131 60.1001C86.9471 60.8176 86.3588 61.815 86.1497 62.92Z" fill="#2D2D2D"/>
<path d="M85.6938 69.42H96.0938V63.3533H85.6938V69.42Z" fill="white"/>
<path d="M96.0931 69.8533H85.6931C85.6362 69.8534 85.5798 69.8422 85.5272 69.8204C85.4746 69.7987 85.4269 69.7667 85.3866 69.7265C85.3464 69.6862 85.3144 69.6385 85.2927 69.5859C85.2709 69.5333 85.2597 69.4769 85.2598 69.42V63.3533C85.2597 63.2964 85.2709 63.2401 85.2927 63.1875C85.3144 63.1349 85.3464 63.0871 85.3866 63.0469C85.4269 63.0066 85.4746 62.9747 85.5272 62.9529C85.5798 62.9312 85.6362 62.92 85.6931 62.92H96.0931C96.15 62.92 96.2064 62.9312 96.259 62.9529C96.3116 62.9747 96.3593 63.0066 96.3996 63.0469C96.4398 63.0871 96.4717 63.1349 96.4935 63.1875C96.5153 63.2401 96.5265 63.2964 96.5264 63.3533V69.42C96.5265 69.4769 96.5153 69.5333 96.4935 69.5859C96.4717 69.6385 96.4398 69.6862 96.3996 69.7265C96.3593 69.7667 96.3116 69.7987 96.259 69.8204C96.2064 69.8422 96.15 69.8534 96.0931 69.8533ZM86.1264 68.9867H95.6598V63.7867H86.1264V68.9867Z" fill="#2D2D2D"/>
<path d="M62.7993 86.2124C65.2413 86.2124 67.5833 87.1825 69.3101 88.9093C71.0368 90.636 72.0069 92.978 72.0069 95.42H53.5918C53.5918 92.978 54.5619 90.636 56.2886 88.9093C58.0154 87.1825 60.3573 86.2125 62.7993 86.2124Z" fill="#259ED9"/>
<path d="M72.0069 95.8533H53.5915C53.5346 95.8534 53.4783 95.8422 53.4257 95.8204C53.3731 95.7987 53.3253 95.7667 53.2851 95.7265C53.2448 95.6862 53.2129 95.6385 53.1911 95.5859C53.1694 95.5333 53.1582 95.4769 53.1582 95.42C53.1606 92.8646 54.1774 90.4147 55.9852 88.6087C57.793 86.8026 60.2439 85.7881 62.7992 85.7881C65.3546 85.7881 67.8055 86.8026 69.6132 88.6087C71.421 90.4147 72.4378 92.8646 72.4403 95.42C72.4403 95.4769 72.4291 95.5333 72.4073 95.5859C72.3856 95.6385 72.3537 95.6862 72.3134 95.7265C72.2732 95.7667 72.2254 95.7987 72.1728 95.8204C72.1202 95.8422 72.0638 95.8534 72.0069 95.8533ZM54.0355 94.9867H71.563C71.4517 92.7373 70.4798 90.6169 68.8485 89.0643C67.2172 87.5117 65.0513 86.6458 62.7992 86.6458C60.5472 86.6458 58.3813 87.5117 56.75 89.0643C55.1186 90.6169 54.1467 92.7373 54.0355 94.9867Z" fill="#2D2D2D"/>
<path d="M90.8933 69.8533C90.8364 69.8534 90.78 69.8422 90.7274 69.8204C90.6748 69.7987 90.627 69.7667 90.5868 69.7265C90.5466 69.6862 90.5146 69.6385 90.4929 69.5859C90.4711 69.5333 90.4599 69.4769 90.46 69.42V63.3533C90.46 63.2384 90.5056 63.1282 90.5869 63.0469C90.6681 62.9657 90.7784 62.92 90.8933 62.92C91.0082 62.92 91.1184 62.9657 91.1997 63.0469C91.281 63.1282 91.3266 63.2384 91.3266 63.3533V69.42C91.3267 69.4769 91.3155 69.5333 91.2937 69.5859C91.2719 69.6385 91.24 69.6862 91.1998 69.7265C91.1595 69.7667 91.1117 69.7987 91.0592 69.8204C91.0066 69.8422 90.9502 69.8534 90.8933 69.8533Z" fill="#2D2D2D"/>
<path d="M93.4939 88.92C93.437 88.92 93.3806 88.9089 93.328 88.8871C93.2754 88.8653 93.2276 88.8334 93.1874 88.7932C93.1471 88.7529 93.1152 88.7051 93.0935 88.6525C93.0717 88.5999 93.0605 88.5436 93.0605 88.4867V85.02C93.0605 84.9051 93.1062 84.7949 93.1875 84.7136C93.2687 84.6323 93.379 84.5867 93.4939 84.5867C93.6088 84.5867 93.719 84.6323 93.8003 84.7136C93.8816 84.7949 93.9272 84.9051 93.9272 85.02V88.4867C93.9272 88.5436 93.9161 88.5999 93.8943 88.6525C93.8725 88.7051 93.8406 88.7529 93.8004 88.7932C93.7601 88.8334 93.7123 88.8653 93.6597 88.8871C93.6072 88.9088 93.5508 88.92 93.4939 88.92Z" fill="#2D2D2D"/>
</svg>
