<svg width="130" height="131" viewBox="0 0 130 131" fill="none" xmlns="http://www.w3.org/2000/svg">
<path d="M57.3172 67.9724L57.1402 67.4786C57.056 67.2436 56.8881 67.048 56.6687 66.9291C56.4493 66.8102 56.1938 66.7763 55.951 66.834L54.0517 67.2852C51.2941 67.9403 48.3894 67.482 45.9674 66.0097L44.2296 64.9533C44.0482 64.8431 43.8328 64.8026 43.6238 64.8396C43.4148 64.8765 43.2263 64.9883 43.0937 65.1541C43.0212 65.2448 42.9674 65.349 42.9357 65.4608C42.9039 65.5725 42.8947 65.6894 42.9087 65.8047C42.9226 65.92 42.9595 66.0314 43.017 66.1323C43.0745 66.2332 43.1516 66.3216 43.2437 66.3924L48.9312 71.8744L56.8101 69.0467C57.0198 68.9715 57.191 68.816 57.2861 68.6146C57.3812 68.4131 57.3924 68.1821 57.3172 67.9724Z" fill="#8FD8F2"/>
<path d="M48.9312 72.3077C48.819 72.3077 48.7111 72.2642 48.6303 72.1863L42.9428 66.7044C42.8134 66.6006 42.7058 66.4723 42.6262 66.3267C42.5465 66.1812 42.4963 66.0214 42.4786 65.8564C42.4572 65.684 42.4707 65.509 42.5182 65.3419C42.5658 65.1747 42.6464 65.0189 42.7554 64.8835C42.9543 64.6362 43.2362 64.4695 43.5487 64.4142C43.8612 64.359 44.1832 64.419 44.4548 64.5831L46.1924 65.6393C48.5145 67.059 51.305 67.4993 53.9514 66.8636L55.8506 66.4125C56.1971 66.3302 56.5619 66.3784 56.8751 66.5481C57.1883 66.7177 57.428 66.9968 57.5484 67.332L57.7253 67.8259C57.8389 68.1438 57.8218 68.4938 57.6778 68.7991C57.5337 69.1045 57.2744 69.3402 56.9568 69.4547L49.0776 72.2824C49.0306 72.2991 48.9811 72.3077 48.9312 72.3077ZM43.7765 65.2597C43.6845 65.2597 43.5947 65.2884 43.5199 65.342C43.445 65.3956 43.3888 65.4712 43.3592 65.5584C43.3296 65.6455 43.3281 65.7398 43.3548 65.8278C43.3815 65.9159 43.4352 65.9934 43.5082 66.0494L49.0379 71.3755L56.6639 68.6388C56.7654 68.6023 56.8482 68.5271 56.8943 68.4296C56.9403 68.332 56.9457 68.2203 56.9094 68.1187L56.7325 67.6245C56.684 67.4899 56.5878 67.378 56.462 67.3099C56.3363 67.2418 56.1899 67.2225 56.0508 67.2555L54.152 67.7066C51.2836 68.396 48.2589 67.9189 45.7422 66.3799L44.0046 65.3236C43.9359 65.2817 43.857 65.2596 43.7765 65.2597Z" fill="#2D2D2D"/>
<path d="M78.5525 67.233C78.4793 67.2332 78.4071 67.2147 78.343 67.1793C78.2788 67.1439 78.2246 67.0928 78.1856 67.0307L75.5433 62.8396C75.513 62.7915 75.4924 62.7379 75.4828 62.6818C75.4732 62.6257 75.4747 62.5683 75.4873 62.5128C75.5127 62.4007 75.5815 62.3034 75.6787 62.2421C75.7759 62.1808 75.8935 62.1606 76.0055 62.186C76.1176 62.2114 76.215 62.2803 76.2763 62.3775L78.9186 66.5687C78.9599 66.6342 78.9828 66.7096 78.9851 66.787C78.9874 66.8644 78.9689 66.941 78.9315 67.0088C78.8941 67.0766 78.8393 67.1332 78.7726 67.1726C78.706 67.2121 78.63 67.2329 78.5525 67.233Z" fill="#2D2D2D"/>
<path d="M39.5255 71.1878C36.5054 70.1603 33.2053 70.3379 30.313 71.6836C30.1448 71.752 29.9731 71.848 29.8194 71.9282C27.782 72.9913 25.0224 71.929 23.709 70.6399C26.1156 68.3144 29.1538 66.7489 32.4444 66.1388C35.735 65.5287 39.1324 65.901 42.2128 67.2093C45.2931 68.5176 47.9201 70.7039 49.766 73.4955C51.6119 76.2871 52.5949 79.5604 52.5925 82.9071L47.9179 82.9071C47.9642 80.3112 47.1729 77.7694 45.6612 75.6585C44.1496 73.5476 41.998 71.9799 39.5255 71.1878Z" fill="#8FD8F2"/>
<path d="M52.5933 83.3404H47.9185C47.8616 83.3404 47.8052 83.3292 47.7526 83.3075C47.7 83.2857 47.6522 83.2538 47.612 83.2136C47.5717 83.1733 47.5398 83.1255 47.5181 83.0729C47.4963 83.0203 47.4851 82.964 47.4851 82.9071C47.5302 80.4019 46.7667 77.9488 45.3079 75.9117C43.8491 73.8745 41.7726 72.3618 39.3863 71.5977C38.15 71.1661 36.8486 70.9508 35.5392 70.9612C33.7947 70.9471 32.0698 71.3288 30.4941 72.0776C30.3561 72.1343 30.233 72.2003 30.1179 72.2612L30.0201 72.3124C27.9144 73.4127 24.9462 72.4609 23.4063 70.9494C23.3649 70.9088 23.3321 70.8604 23.3098 70.8069C23.2875 70.7535 23.2761 70.6961 23.2764 70.6382C23.2766 70.5803 23.2885 70.523 23.3112 70.4698C23.3339 70.4165 23.3671 70.3683 23.4088 70.3281C25.8766 67.9434 28.992 66.3381 32.3663 65.7125C35.7405 65.0869 39.2243 65.4686 42.383 66.8102C45.5417 68.1517 48.2355 70.3936 50.1283 73.2562C52.0211 76.1188 53.0291 79.4753 53.0266 82.9071C53.0266 82.964 53.0154 83.0203 52.9937 83.0729C52.9719 83.1255 52.94 83.1733 52.8998 83.2136C52.8595 83.2538 52.8117 83.2857 52.7591 83.3075C52.7065 83.3292 52.6502 83.3404 52.5933 83.3404ZM48.3454 82.4737H52.1544C52.0739 79.29 51.0796 76.1966 49.2901 73.5622C47.5006 70.9277 44.9913 68.8634 42.0614 67.6151C39.1315 66.3669 35.9044 65.9874 32.7649 66.5219C29.6253 67.0565 26.7056 68.4824 24.3538 70.6299C25.6221 71.6345 27.9233 72.4301 29.6194 71.5439L29.7125 71.4953C29.8526 71.4208 30.0028 71.3425 30.1497 71.2824C33.1384 69.8973 36.5457 69.7164 39.6644 70.7771L39.6656 70.7776C42.1546 71.5732 44.3312 73.13 45.8884 75.2284C47.4456 77.3268 48.305 79.861 48.3454 82.4737Z" fill="#2D2D2D"/>
<path d="M77.1964 61.7247L75.4 59.1296C74.9879 58.5343 74.458 58.03 73.843 57.6479C73.228 57.2658 72.5411 57.014 71.8249 56.9083C71.1086 56.8025 70.3783 56.8449 69.6791 57.033C68.9799 57.221 68.3268 57.5507 67.7603 58.0015L58.6652 65.2381C58.3372 65.4991 58.1156 65.8708 58.0421 66.2835L57.6006 68.763L77.1964 61.7247Z" fill="#8FD8F2"/>
<path d="M57.6002 69.1961C57.5369 69.1961 57.4744 69.1823 57.417 69.1555C57.3596 69.1287 57.3088 69.0897 57.2682 69.0411C57.2275 68.9926 57.198 68.9358 57.1816 68.8746C57.1653 68.8134 57.1626 68.7494 57.1737 68.6871L57.6151 66.2077C57.707 65.6909 57.9845 65.2254 58.3954 64.8988L67.4899 57.6625C68.1029 57.1747 68.8095 56.8181 69.566 56.6147C70.3224 56.4112 71.1126 56.3653 71.8876 56.4797C72.6625 56.5941 73.4057 56.8664 74.0711 57.2798C74.7365 57.6932 75.3099 58.2388 75.7558 58.8829L77.5522 61.4778C77.59 61.5325 77.6147 61.5951 77.6245 61.6608C77.6343 61.7265 77.6288 61.7936 77.6085 61.8569C77.5882 61.9201 77.5537 61.9779 77.5075 62.0257C77.4614 62.0735 77.4048 62.11 77.3423 62.1325L57.7467 69.1708C57.6997 69.1875 57.6501 69.1961 57.6002 69.1961ZM71.0357 57.2833C69.9426 57.283 68.8822 57.6559 68.0299 58.3404L58.9349 65.5771C58.6891 65.7723 58.5231 66.0506 58.4682 66.3596L58.158 68.1022L76.5184 61.5074L75.0432 59.3763C74.667 58.8278 74.181 58.3634 73.616 58.0123C73.0511 57.6613 72.4194 57.4314 71.761 57.337C71.5209 57.3014 71.2785 57.2834 71.0357 57.2833Z" fill="#2D2D2D"/>
<path d="M80.2881 82.8533C80.2881 85.3388 81.0251 87.7684 82.4059 89.835C83.7868 91.9016 85.7494 93.5123 88.0457 94.4634C90.342 95.4146 92.8687 95.6634 95.3064 95.1785C97.7441 94.6936 99.9832 93.4968 101.741 91.7393C103.498 89.9818 104.695 87.7427 105.18 85.305C105.665 82.8673 105.416 80.3405 104.465 78.0443C103.514 75.748 101.903 73.7854 99.8364 72.4045C97.7698 71.0237 95.3402 70.2867 92.8548 70.2867C89.5219 70.2867 86.3255 71.6106 83.9688 73.9674C81.6121 76.3241 80.2881 79.5204 80.2881 82.8533ZM85.9214 82.8533C85.9214 81.482 86.3281 80.1416 87.0899 79.0014C87.8517 77.8612 88.9346 76.9725 90.2015 76.4478C91.4684 75.923 92.8624 75.7857 94.2074 76.0532C95.5523 76.3207 96.7877 76.9811 97.7574 77.9507C98.727 78.9204 99.3873 80.1558 99.6549 81.5007C99.9224 82.8456 99.7851 84.2397 99.2603 85.5066C98.7355 86.7735 97.8469 87.8563 96.7067 88.6182C95.5665 89.38 94.226 89.7867 92.8548 89.7867C91.0159 89.7867 89.2524 89.0562 87.9521 87.7559C86.6519 86.4557 85.9214 84.6922 85.9214 82.8533Z" fill="#2D2D2D"/>
<path d="M92.8555 95.8533C90.2843 95.8533 87.7709 95.0909 85.6331 93.6624C83.4952 92.234 81.829 90.2037 80.845 87.8282C79.8611 85.4528 79.6037 82.8389 80.1053 80.3172C80.6069 77.7954 81.845 75.479 83.6631 73.6609C85.4812 71.8429 87.7975 70.6047 90.3193 70.1031C92.8411 69.6015 95.4549 69.859 97.8304 70.8429C100.206 71.8268 102.236 73.4931 103.665 75.6309C105.093 77.7688 105.855 80.2822 105.855 82.8533C105.852 86.3 104.481 89.6043 102.044 92.0414C99.6064 94.4785 96.3021 95.8494 92.8555 95.8533ZM92.8555 70.72C90.4557 70.72 88.1099 71.4316 86.1146 72.7648C84.1192 74.0981 82.5641 75.993 81.6457 78.2101C80.7274 80.4272 80.4871 82.8668 80.9553 85.2204C81.4234 87.5741 82.579 89.736 84.2759 91.4329C85.9728 93.1298 88.1347 94.2854 90.4884 94.7535C92.842 95.2217 95.2816 94.9814 97.4987 94.0631C99.7158 93.1447 101.611 91.5896 102.944 89.5943C104.277 87.5989 104.989 85.2531 104.989 82.8533C104.985 79.6365 103.706 76.5524 101.431 74.2778C99.1564 72.0031 96.0723 70.7236 92.8555 70.72ZM92.8555 90.22C91.3985 90.22 89.9742 89.788 88.7628 88.9785C87.5513 88.169 86.6071 87.0185 86.0496 85.6724C85.492 84.3264 85.3461 82.8452 85.6304 81.4162C85.9146 79.9872 86.6162 78.6746 87.6465 77.6443C88.6767 76.6141 89.9893 75.9125 91.4183 75.6282C92.8473 75.344 94.3285 75.4899 95.6746 76.0474C97.0207 76.605 98.1712 77.5492 98.9806 78.7606C99.7901 79.9721 100.222 81.3963 100.222 82.8533C100.22 84.8064 99.4431 86.6789 98.0621 88.0599C96.681 89.441 94.8086 90.2178 92.8555 90.22ZM92.8555 76.3533C91.5699 76.3533 90.3132 76.7346 89.2443 77.4488C88.1754 78.163 87.3422 79.1782 86.8503 80.3659C86.3583 81.5536 86.2296 82.8606 86.4804 84.1214C86.7312 85.3823 87.3502 86.5405 88.2593 87.4495C89.1683 88.3586 90.3265 88.9776 91.5874 89.2284C92.8483 89.4792 94.1552 89.3505 95.3429 88.8586C96.5306 88.3666 97.5458 87.5335 98.26 86.4645C98.9743 85.3956 99.3555 84.1389 99.3555 82.8533C99.3536 81.13 98.6682 79.4778 97.4496 78.2592C96.231 77.0406 94.5788 76.3552 92.8555 76.3533Z" fill="#2D2D2D"/>
<path d="M22.9727 82.8533C22.9727 85.3388 23.7097 87.7684 25.0905 89.835C26.4714 91.9016 28.434 93.5123 30.7303 94.4634C33.0265 95.4146 35.5533 95.6634 37.991 95.1785C40.4287 94.6936 42.6678 93.4968 44.4253 91.7393C46.1828 89.9818 47.3796 87.7427 47.8645 85.305C48.3494 82.8673 48.1005 80.3405 47.1494 78.0443C46.1983 75.748 44.5876 73.7854 42.521 72.4045C40.4544 71.0237 38.0248 70.2867 35.5393 70.2867C32.2064 70.2867 29.0101 71.6106 26.6533 73.9674C24.2966 76.3241 22.9727 79.5204 22.9727 82.8533ZM28.606 82.8533C28.606 81.482 29.0126 80.1416 29.7745 79.0014C30.5363 77.8612 31.6192 76.9725 32.8861 76.4478C34.153 75.923 35.547 75.7857 36.8919 76.0532C38.2369 76.3207 39.4723 76.9811 40.4419 77.9507C41.4116 78.9204 42.0719 80.1558 42.3394 81.5007C42.607 82.8456 42.4697 84.2397 41.9449 85.5066C41.4201 86.7735 40.5315 87.8563 39.3913 88.6182C38.2511 89.38 36.9106 89.7867 35.5393 89.7867C33.7005 89.7867 31.937 89.0562 30.6367 87.7559C29.3365 86.4557 28.606 84.6922 28.606 82.8533Z" fill="#2D2D2D"/>
<path d="M35.5391 95.8533C32.9679 95.8533 30.4545 95.0909 28.3167 93.6624C26.1788 92.234 24.5126 90.2037 23.5286 87.8282C22.5447 85.4528 22.2873 82.8389 22.7889 80.3172C23.2905 77.7954 24.5286 75.479 26.3467 73.6609C28.1648 71.8429 30.4811 70.6047 33.0029 70.1031C35.5246 69.6015 38.1385 69.859 40.514 70.8429C42.8894 71.8268 44.9197 73.4931 46.3482 75.6309C47.7766 77.7688 48.5391 80.2822 48.5391 82.8533C48.5352 86.3 47.1643 89.6043 44.7271 92.0414C42.29 94.4785 38.9857 95.8494 35.5391 95.8533ZM35.5391 70.72C33.1393 70.72 30.7935 71.4316 28.7981 72.7648C26.8028 74.0981 25.2477 75.993 24.3293 78.2101C23.411 80.4272 23.1707 82.8668 23.6389 85.2204C24.107 87.5741 25.2626 89.736 26.9595 91.4329C28.6564 93.1298 30.8183 94.2854 33.172 94.7535C35.5256 95.2217 37.9652 94.9814 40.1823 94.0631C42.3994 93.1447 44.2943 91.5896 45.6276 89.5943C46.9608 87.5989 47.6724 85.2531 47.6724 82.8533C47.6688 79.6365 46.3893 76.5524 44.1146 74.2778C41.84 72.0031 38.7559 70.7236 35.5391 70.72ZM35.5391 90.22C34.0821 90.22 32.6578 89.788 31.4464 88.9785C30.2349 88.169 29.2907 87.0185 28.7332 85.6724C28.1756 84.3264 28.0297 82.8452 28.3139 81.4162C28.5982 79.9872 29.2998 78.6746 30.33 77.6443C31.3603 76.6141 32.6729 75.9125 34.1019 75.6282C35.5309 75.344 37.0121 75.4899 38.3582 76.0474C39.7043 76.605 40.8548 77.5492 41.6642 78.7606C42.4737 79.9721 42.9057 81.3963 42.9057 82.8533C42.9036 84.8064 42.1267 86.6789 40.7457 88.0599C39.3646 89.441 37.4922 90.2178 35.5391 90.22ZM35.5391 76.3533C34.2535 76.3533 32.9968 76.7346 31.9279 77.4488C30.8589 78.163 30.0258 79.1782 29.5339 80.3659C29.0419 81.5536 28.9132 82.8606 29.164 84.1214C29.4148 85.3823 30.0338 86.5405 30.9429 87.4495C31.8519 88.3586 33.0101 88.9776 34.271 89.2284C35.5319 89.4792 36.8388 89.3505 38.0265 88.8586C39.2142 88.3666 40.2294 87.5335 40.9436 86.4645C41.6578 85.3956 42.0391 84.1389 42.0391 82.8533C42.0372 81.13 41.3518 79.4778 40.1332 78.2592C38.9146 77.0406 37.2624 76.3552 35.5391 76.3533Z" fill="#2D2D2D"/>
<path d="M83.0601 56.9071H85.5263V62.9737H83.0601C83.0601 62.9737 80.4951 62.086 80.4951 59.9404C80.4951 57.7948 83.0601 56.9071 83.0601 56.9071Z" fill="#8FD8F2"/>
<path d="M85.526 63.4071H83.0597C83.0115 63.407 82.9636 63.399 82.918 63.3834C82.8012 63.3427 80.0615 62.3665 80.0615 59.9404C80.0615 57.5143 82.8012 56.5381 82.918 56.4974C82.9636 56.4818 83.0115 56.4738 83.0597 56.4737H85.526C85.5829 56.4737 85.6393 56.4849 85.6919 56.5067C85.7445 56.5284 85.7922 56.5603 85.8325 56.6006C85.8727 56.6408 85.9047 56.6886 85.9264 56.7412C85.9482 56.7938 85.9594 56.8501 85.9593 56.9071V62.9737C85.9594 63.0306 85.9482 63.087 85.9264 63.1396C85.9047 63.1922 85.8727 63.24 85.8325 63.2802C85.7922 63.3205 85.7445 63.3524 85.6919 63.3742C85.6393 63.3959 85.5829 63.4071 85.526 63.4071ZM83.1393 62.5404H85.0927V57.3404H83.1393C82.7724 57.4868 80.9282 58.3057 80.9282 59.9404C80.9282 61.5751 82.7724 62.394 83.1393 62.5404Z" fill="#2D2D2D"/>
<path d="M24.2659 66.4404H24.8579C24.8579 66.4404 25.9571 66.8209 25.9571 67.7404C25.9571 68.6599 24.8579 69.0404 24.8579 69.0404H23.126V66.4404H24.2659Z" fill="#8FD8F2"/>
<path d="M24.8578 69.4737H23.1257C23.0688 69.4738 23.0124 69.4626 22.9598 69.4408C22.9073 69.4191 22.8595 69.3871 22.8192 69.3469C22.779 69.3066 22.7471 69.2589 22.7253 69.2063C22.7035 69.1537 22.6923 69.0973 22.6924 69.0404V66.4404C22.6923 66.3835 22.7035 66.3271 22.7253 66.2745C22.7471 66.2219 22.779 66.1742 22.8192 66.1339C22.8595 66.0937 22.9073 66.0618 22.9598 66.04C23.0124 66.0182 23.0688 66.007 23.1257 66.0071H24.8578C24.906 66.0071 24.9539 66.0151 24.9995 66.0308C25.0563 66.0507 26.3901 66.5263 26.3901 67.7404C26.3901 68.9545 25.0563 69.4302 24.9995 69.45C24.9539 69.4657 24.906 69.4737 24.8578 69.4737ZM23.559 68.6071H24.7744C24.9602 68.5262 25.5234 68.2397 25.5234 67.7404C25.5234 67.2419 24.9618 66.9554 24.7744 66.8737H23.559V68.6071Z" fill="#2D2D2D"/>
<path d="M91.6299 81.0955C91.5527 81.0955 91.477 81.075 91.4104 81.036C91.3438 80.997 91.2889 80.941 91.2512 80.8737L78.7061 58.4402L75.0227 52.06H69.0593C68.9444 52.06 68.8342 52.0144 68.7529 51.9331C68.6716 51.8518 68.626 51.7416 68.626 51.6267C68.626 51.5118 68.6716 51.4015 68.7529 51.3203C68.8342 51.239 68.9444 51.1933 69.0593 51.1933H75.2728C75.3489 51.1933 75.4236 51.2133 75.4895 51.2514C75.5554 51.2894 75.6101 51.3441 75.6482 51.41L79.4598 58.012L92.0078 80.4505C92.0447 80.5165 92.0638 80.5909 92.063 80.6664C92.0623 80.742 92.0418 80.816 92.0036 80.8812C91.9654 80.9464 91.9108 81.0005 91.8453 81.0381C91.7797 81.0756 91.7054 81.0954 91.6299 81.0955Z" fill="#2D2D2D"/>
<path d="M48.9307 72.3077C48.8286 72.3078 48.7297 72.2718 48.6516 72.2061C48.5734 72.1404 48.521 72.0493 48.5035 71.9487C48.486 71.8481 48.5046 71.7446 48.5559 71.6564C48.6073 71.5682 48.6881 71.5009 48.7842 71.4665L77.0495 61.3166C77.1032 61.2971 77.1601 61.2884 77.2171 61.2909C77.2741 61.2935 77.3301 61.3073 77.3818 61.3315C77.4334 61.3558 77.4798 61.39 77.5182 61.4322C77.5566 61.4744 77.5863 61.5238 77.6056 61.5775C77.6249 61.6312 77.6334 61.6882 77.6306 61.7452C77.6277 61.8022 77.6137 61.8581 77.5893 61.9097C77.5648 61.9612 77.5304 62.0075 77.488 62.0457C77.4457 62.0839 77.3961 62.1134 77.3423 62.1325L49.0771 72.2824C49.0301 72.2992 48.9806 72.3078 48.9307 72.3077Z" fill="#2D2D2D"/>
<path d="M55.2494 77.231C55.153 77.2312 55.0592 77.199 54.9832 77.1396L48.6644 72.2164C48.6189 72.1816 48.5808 72.1382 48.5522 72.0886C48.5235 72.039 48.505 71.9843 48.4977 71.9275C48.4904 71.8708 48.4944 71.8131 48.5094 71.7579C48.5245 71.7027 48.5504 71.651 48.5855 71.6058C48.6207 71.5607 48.6644 71.5229 48.7143 71.4948C48.7641 71.4666 48.819 71.4486 48.8758 71.4418C48.9327 71.435 48.9903 71.4395 49.0454 71.455C49.1004 71.4706 49.1519 71.4969 49.1967 71.5325L55.2655 76.2611L79.7273 59.4605C79.822 59.3954 79.9387 59.3706 80.0517 59.3916C80.1647 59.4125 80.2648 59.4775 80.3299 59.5722C80.395 59.667 80.4198 59.7837 80.3988 59.8967C80.3779 60.0097 80.3129 60.1098 80.2181 60.1749L55.4949 77.1548C55.4226 77.2044 55.3371 77.231 55.2494 77.231Z" fill="#2D2D2D"/>
<path d="M56.8146 88.2353C56.7103 88.2352 56.6095 88.1975 56.5308 88.1291C56.4521 88.0607 56.4006 87.9662 56.3859 87.8629L54.8205 76.8586C54.8047 76.745 54.8346 76.6297 54.9037 76.5381C54.9727 76.4464 55.0753 76.3859 55.1889 76.3698C55.3025 76.3536 55.4178 76.3832 55.5097 76.452C55.6015 76.5208 55.6623 76.6232 55.6788 76.7367L57.2441 87.741C57.2529 87.8025 57.2484 87.8652 57.2308 87.9248C57.2132 87.9844 57.1831 88.0395 57.1423 88.0864C57.1016 88.1332 57.0512 88.1708 56.9946 88.1965C56.9381 88.2222 56.8767 88.2355 56.8146 88.2353Z" fill="#2D2D2D"/>
<path d="M61.8286 76.4752C61.7373 76.4754 61.6484 76.4467 61.5744 76.3933C61.5004 76.34 61.4451 76.2646 61.4165 76.178C61.3878 76.0913 61.3872 75.9979 61.4148 75.9109C61.4424 75.8239 61.4967 75.7479 61.57 75.6936L70.5278 69.0577C70.6202 68.9893 70.736 68.9603 70.8497 68.9772C70.9634 68.9941 71.0658 69.0555 71.1342 69.1479C71.2027 69.2402 71.2317 69.356 71.2148 69.4697C71.1979 69.5835 71.1365 69.6858 71.0441 69.7543L62.0863 76.3902C62.0118 76.4455 61.9214 76.4753 61.8286 76.4752Z" fill="#2D2D2D"/>
<path d="M67.9779 82.1665C67.9037 82.1665 67.8307 82.1473 67.766 82.111C67.7012 82.0746 67.6469 82.0222 67.6083 81.9588C67.5696 81.8955 67.5479 81.8232 67.5452 81.749C67.5425 81.6748 67.5589 81.6012 67.5929 81.5351L72.7954 71.4043C72.8483 71.3027 72.9392 71.2262 73.0484 71.1915C73.1575 71.1568 73.2759 71.1667 73.3778 71.219C73.4796 71.2714 73.5566 71.3619 73.592 71.4708C73.6273 71.5797 73.6181 71.6982 73.5664 71.8003L68.3639 81.9312C68.3274 82.0021 68.2721 82.0616 68.204 82.1031C68.1359 82.1446 68.0577 82.1666 67.9779 82.1665Z" fill="#2D2D2D"/>
<path d="M64.293 84.6404C66.9256 84.6404 69.0597 82.5063 69.0597 79.8737C69.0597 77.2412 66.9256 75.1071 64.293 75.1071C61.6605 75.1071 59.5264 77.2412 59.5264 79.8737C59.5264 82.5063 61.6605 84.6404 64.293 84.6404Z" fill="#8FD8F2"/>
<path d="M64.2928 85.0737C63.2643 85.0737 62.2589 84.7688 61.4038 84.1974C60.5487 83.626 59.8822 82.8139 59.4886 81.8637C59.095 80.9135 58.992 79.868 59.1927 78.8593C59.3933 77.8506 59.8886 76.924 60.6158 76.1968C61.3431 75.4695 62.2696 74.9743 63.2783 74.7737C64.287 74.573 65.3326 74.676 66.2827 75.0696C67.2329 75.4631 68.045 76.1296 68.6164 76.9848C69.1878 77.8399 69.4928 78.8453 69.4928 79.8737C69.4913 81.2524 68.9429 82.5742 67.9681 83.549C66.9932 84.5239 65.6714 85.0722 64.2928 85.0737ZM64.2928 75.5404C63.4357 75.5404 62.5979 75.7946 61.8853 76.2707C61.1727 76.7469 60.6173 77.4236 60.2893 78.2154C59.9613 79.0073 59.8755 79.8785 60.0427 80.7191C60.2099 81.5597 60.6226 82.3318 61.2286 82.9379C61.8347 83.5439 62.6068 83.9566 63.4474 84.1238C64.288 84.291 65.1593 84.2052 65.9511 83.8772C66.7429 83.5492 67.4197 82.9938 67.8958 82.2812C68.372 81.5686 68.6261 80.7308 68.6261 79.8737C68.6248 78.7249 68.1678 77.6235 67.3554 76.8111C66.543 75.9987 65.4416 75.5418 64.2928 75.5404Z" fill="#2D2D2D"/>
<path d="M72.0924 72.5071C73.2891 72.5071 74.2591 71.537 74.2591 70.3404C74.2591 69.1438 73.2891 68.1738 72.0924 68.1738C70.8958 68.1738 69.9258 69.1438 69.9258 70.3404C69.9258 71.537 70.8958 72.5071 72.0924 72.5071Z" fill="#8FD8F2"/>
<path d="M72.0922 72.9404C71.578 72.9404 71.0753 72.7879 70.6477 72.5022C70.2201 72.2165 69.8869 71.8105 69.6901 71.3354C69.4933 70.8603 69.4418 70.3375 69.5421 69.8332C69.6425 69.3288 69.8901 68.8655 70.2537 68.5019C70.6173 68.1383 71.0806 67.8907 71.5849 67.7904C72.0893 67.69 72.6121 67.7415 73.0872 67.9383C73.5622 68.1351 73.9683 68.4684 74.254 68.8959C74.5397 69.3235 74.6922 69.8262 74.6922 70.3404C74.6914 71.0297 74.4173 71.6906 73.9298 72.178C73.4424 72.6655 72.7815 72.9396 72.0922 72.9404ZM72.0922 68.6071C71.7494 68.6071 71.4142 68.7087 71.1292 68.8992C70.8442 69.0897 70.622 69.3604 70.4908 69.6771C70.3596 69.9938 70.3253 70.3423 70.3922 70.6786C70.459 71.0148 70.6241 71.3236 70.8665 71.5661C71.1089 71.8085 71.4178 71.9735 71.754 72.0404C72.0903 72.1073 72.4388 72.073 72.7555 71.9418C73.0722 71.8106 73.3429 71.5884 73.5334 71.3034C73.7239 71.0183 73.8255 70.6832 73.8255 70.3404C73.8251 69.8808 73.6423 69.4402 73.3173 69.1153C72.9924 68.7903 72.5518 68.6075 72.0922 68.6071Z" fill="#2D2D2D"/>
<path d="M68.576 88.5404H56.5532C56.4905 88.5404 56.4286 88.5269 56.3717 88.5006C56.3147 88.4744 56.2642 88.4361 56.2235 88.3885L51.9168 83.3404H42.626V82.4737H52.1165C52.1792 82.4737 52.2411 82.4873 52.298 82.5135C52.3549 82.5397 52.4055 82.578 52.4462 82.6257L56.7529 87.6737H68.3018L80.75 61.3864L81.5329 61.7571L68.9675 88.2924C68.9325 88.3666 68.8771 88.4293 68.8078 88.4732C68.7384 88.5171 68.6581 88.5404 68.576 88.5404Z" fill="#2D2D2D"/>
<path d="M32.9387 82.9071C32.9387 84.343 34.1027 85.5071 35.5387 85.5071C36.9746 85.5071 38.1387 84.343 38.1387 82.9071C38.1387 81.4711 36.9746 80.3071 35.5387 80.3071C34.1027 80.3071 32.9387 81.4711 32.9387 82.9071Z" fill="#8FD8F2"/>
<path d="M35.5392 85.9404C34.9393 85.9404 34.3528 85.7625 33.854 85.4292C33.3551 85.0959 32.9663 84.6221 32.7368 84.0679C32.5072 83.5136 32.4471 82.9037 32.5641 82.3153C32.6812 81.7269 32.9701 81.1864 33.3943 80.7622C33.8185 80.338 34.359 80.0491 34.9474 79.932C35.5358 79.815 36.1457 79.875 36.7 80.1046C37.2543 80.3342 37.728 80.723 38.0613 81.2218C38.3946 81.7207 38.5725 82.3071 38.5725 82.9071C38.5716 83.7113 38.2517 84.4822 37.683 85.0509C37.1144 85.6195 36.3434 85.9394 35.5392 85.9404ZM35.5392 80.7404C35.1107 80.7404 34.6918 80.8675 34.3355 81.1056C33.9792 81.3436 33.7014 81.682 33.5375 82.0779C33.3735 82.4738 33.3306 82.9095 33.4142 83.3298C33.4978 83.7501 33.7041 84.1361 34.0071 84.4391C34.3101 84.7421 34.6962 84.9485 35.1165 85.0321C35.5368 85.1157 35.9724 85.0728 36.3683 84.9088C36.7642 84.7448 37.1026 84.4671 37.3407 84.1108C37.5788 83.7545 37.7059 83.3356 37.7059 82.9071C37.7052 82.3326 37.4767 81.7819 37.0705 81.3757C36.6643 80.9696 36.1136 80.7411 35.5392 80.7404Z" fill="#2D2D2D"/>
<path d="M90.2551 82.9071C90.2551 84.343 91.4191 85.5071 92.8551 85.5071C94.291 85.5071 95.4551 84.343 95.4551 82.9071C95.4551 81.4711 94.291 80.3071 92.8551 80.3071C91.4191 80.3071 90.2551 81.4711 90.2551 82.9071Z" fill="#8FD8F2"/>
<path d="M92.8546 85.9404C92.2547 85.9404 91.6682 85.7625 91.1694 85.4292C90.6706 85.0959 90.2818 84.6221 90.0522 84.0679C89.8226 83.5136 89.7625 82.9037 89.8796 82.3153C89.9966 81.7269 90.2855 81.1864 90.7097 80.7622C91.134 80.338 91.6744 80.0491 92.2629 79.932C92.8513 79.815 93.4612 79.875 94.0154 80.1046C94.5697 80.3342 95.0434 80.723 95.3768 81.2218C95.7101 81.7207 95.888 82.3071 95.888 82.9071C95.887 83.7113 95.5671 84.4822 94.9984 85.0509C94.4298 85.6195 93.6588 85.9394 92.8546 85.9404ZM92.8546 80.7404C92.4261 80.7404 92.0072 80.8675 91.6509 81.1056C91.2946 81.3436 91.0169 81.682 90.8529 82.0779C90.6889 82.4738 90.646 82.9095 90.7296 83.3298C90.8132 83.7501 91.0195 84.1361 91.3226 84.4391C91.6256 84.7421 92.0116 84.9485 92.4319 85.0321C92.8522 85.1157 93.2879 85.0728 93.6838 84.9088C94.0797 84.7448 94.4181 84.4671 94.6561 84.1108C94.8942 83.7545 95.0213 83.3356 95.0213 82.9071C95.0206 82.3326 94.7921 81.7819 94.3859 81.3758C93.9798 80.9696 93.4291 80.7411 92.8546 80.7404Z" fill="#2D2D2D"/>
</svg>
