<svg width="130" height="131" viewBox="0 0 130 131" fill="none" xmlns="http://www.w3.org/2000/svg">
<path d="M76.4249 43.5858C83.1437 34.8672 96.8165 42.8872 90.1316 54.278C87.2002 59.2726 87.23 62.4707 88.5662 67.1446C90.2027 72.8692 88.3944 77.6936 82.5504 77.6936C82.5504 77.6936 67.8189 54.7534 76.4249 43.5858Z" fill="#2D2D2D"/>
<path d="M42.1116 32.1833H57.5106L67.5544 91.9833H16.707V57.6079L42.1116 32.1833Z" fill="white"/>
<path d="M67.555 92.4167H16.7077C16.6508 92.4167 16.5945 92.4055 16.5419 92.3838C16.4893 92.362 16.4415 92.3301 16.4013 92.2898C16.361 92.2496 16.3291 92.2018 16.3073 92.1492C16.2856 92.0966 16.2744 92.0402 16.2744 91.9833V57.6082C16.2745 57.4933 16.3201 57.3831 16.4014 57.3019L41.8064 31.8769C41.8466 31.8367 41.8944 31.8048 41.9469 31.783C41.9995 31.7612 42.0559 31.75 42.1128 31.75H57.5113C57.6138 31.7499 57.713 31.7862 57.7913 31.8524C57.8695 31.9185 57.9218 32.0103 57.9387 32.1114L67.9824 91.9114C67.9929 91.9735 67.9896 92.0372 67.9729 92.0979C67.9563 92.1587 67.9265 92.215 67.8859 92.2631C67.8452 92.3112 67.7945 92.3499 67.7374 92.3764C67.6802 92.4029 67.618 92.4166 67.555 92.4167ZM17.1411 91.55H67.043L57.1449 32.6167H42.2922L17.1411 57.7877V91.55Z" fill="#2D2D2D"/>
<path d="M14.2256 59.9167H29.4616L57.1655 32.1833H41.9295L14.2256 59.9167Z" fill="white"/>
<path d="M29.4622 60.35H14.2253C14.1396 60.35 14.0558 60.3246 13.9845 60.2769C13.9133 60.2293 13.8578 60.1617 13.825 60.0825C13.7922 60.0033 13.7836 59.9162 13.8003 59.8321C13.817 59.7481 13.8583 59.6709 13.9189 59.6103L41.6226 31.8769C41.6628 31.8367 41.7106 31.8048 41.7631 31.783C41.8157 31.7612 41.8721 31.75 41.929 31.75H57.165C57.2507 31.75 57.3345 31.7754 57.4058 31.823C57.477 31.8707 57.5325 31.9383 57.5653 32.0175C57.5981 32.0967 57.6067 32.1838 57.59 32.2679C57.5733 32.3519 57.532 32.4291 57.4714 32.4897L29.7686 60.2231C29.7283 60.2633 29.6806 60.2952 29.628 60.317C29.5754 60.3388 29.5191 60.35 29.4622 60.35ZM15.2705 59.4833H29.2828L56.1198 32.6167H42.1084L15.2705 59.4833Z" fill="#2D2D2D"/>
<path d="M66.1072 58.1833H73.9072V36.5167H66.1072V58.1833Z" fill="white"/>
<path d="M73.9072 58.6167H66.1072C66.0502 58.6167 65.9939 58.6055 65.9413 58.5837C65.8887 58.562 65.8409 58.5301 65.8007 58.4898C65.7604 58.4496 65.7285 58.4018 65.7068 58.3492C65.685 58.2966 65.6738 58.2402 65.6738 58.1833V36.5167C65.6738 36.4597 65.685 36.4034 65.7068 36.3508C65.7285 36.2982 65.7604 36.2504 65.8007 36.2102C65.8409 36.1699 65.8887 36.138 65.9413 36.1162C65.9939 36.0945 66.0502 36.0833 66.1072 36.0833H73.9072C73.9641 36.0833 74.0204 36.0945 74.073 36.1162C74.1256 36.138 74.1734 36.1699 74.2136 36.2102C74.2539 36.2504 74.2858 36.2982 74.3076 36.3508C74.3293 36.4034 74.3405 36.4597 74.3405 36.5167V58.1833C74.3405 58.2402 74.3293 58.2966 74.3076 58.3492C74.2858 58.4018 74.2539 58.4496 74.2136 58.4898C74.1734 58.5301 74.1256 58.562 74.073 58.5837C74.0204 58.6055 73.9641 58.6167 73.9072 58.6167ZM66.5405 57.75H73.4738V36.95H66.5405V57.75Z" fill="#2D2D2D"/>
<path d="M56.988 32.101L82.5374 57.5429L82.5738 57.5619V91.9833H31.4404V57.5611L56.988 32.101Z" fill="#8FD8F2"/>
<path d="M82.5745 92.4167H31.4411C31.3842 92.4167 31.3279 92.4055 31.2753 92.3838C31.2227 92.362 31.1749 92.3301 31.1347 92.2898C31.0944 92.2496 31.0625 92.2018 31.0407 92.1492C31.019 92.0966 31.0078 92.0402 31.0078 91.9833V57.5608C31.0078 57.5038 31.019 57.4473 31.041 57.3946C31.0629 57.342 31.0951 57.2942 31.1356 57.254L56.6828 31.794C56.7639 31.7131 56.8737 31.6676 56.9883 31.6675C57.1028 31.6674 57.2127 31.7128 57.2939 31.7936L82.8233 57.2147C82.8767 57.2563 82.9208 57.3087 82.9526 57.3685C82.9844 57.4283 83.0032 57.4941 83.0078 57.5617V91.9833C83.0078 92.0402 82.9966 92.0966 82.9749 92.1492C82.9531 92.2018 82.9212 92.2496 82.881 92.2898C82.8407 92.3301 82.7929 92.362 82.7403 92.3837C82.6878 92.4055 82.6314 92.4167 82.5745 92.4167ZM31.8745 91.55H82.1411V57.7589L56.9883 32.7123L31.8745 57.7407V91.55Z" fill="#2D2D2D"/>
<path d="M40.9736 83.3167H52.2402V66.85H40.9736V83.3167Z" fill="white"/>
<path d="M52.241 83.75H40.9743C40.9174 83.75 40.8611 83.7388 40.8085 83.7171C40.7559 83.6953 40.7081 83.6634 40.6679 83.6231C40.6276 83.5829 40.5957 83.5351 40.5739 83.4825C40.5522 83.4299 40.541 83.3736 40.541 83.3167V66.85C40.541 66.7931 40.5522 66.7367 40.5739 66.6841C40.5957 66.6315 40.6276 66.5838 40.6679 66.5435C40.7081 66.5033 40.7559 66.4713 40.8085 66.4496C40.8611 66.4278 40.9174 66.4166 40.9743 66.4167H52.241C52.2979 66.4166 52.3543 66.4278 52.4069 66.4496C52.4595 66.4713 52.5073 66.5033 52.5475 66.5435C52.5877 66.5838 52.6197 66.6315 52.6414 66.6841C52.6632 66.7367 52.6744 66.7931 52.6743 66.85V83.3167C52.6744 83.3736 52.6632 83.4299 52.6414 83.4825C52.6197 83.5351 52.5877 83.5829 52.5475 83.6231C52.5073 83.6634 52.4595 83.6953 52.4069 83.7171C52.3543 83.7388 52.2979 83.75 52.241 83.75ZM41.4077 82.8833H51.8077V67.2833H41.4077V82.8833Z" fill="#2D2D2D"/>
<path d="M62.6406 91.9833H73.9072V66.85H62.6406V91.9833Z" fill="white"/>
<path d="M73.908 92.4167H62.6413C62.5844 92.4167 62.5281 92.4055 62.4755 92.3837C62.4229 92.362 62.3751 92.3301 62.3349 92.2898C62.2946 92.2496 62.2627 92.2018 62.2409 92.1492C62.2192 92.0966 62.208 92.0402 62.208 91.9833V66.85C62.208 66.7931 62.2192 66.7367 62.2409 66.6841C62.2627 66.6315 62.2946 66.5838 62.3349 66.5435C62.3751 66.5033 62.4229 66.4713 62.4755 66.4496C62.5281 66.4278 62.5844 66.4166 62.6413 66.4167H73.908C73.9649 66.4166 74.0213 66.4278 74.0739 66.4496C74.1265 66.4713 74.1742 66.5033 74.2145 66.5435C74.2547 66.5838 74.2867 66.6315 74.3084 66.6841C74.3302 66.7367 74.3414 66.7931 74.3413 66.85V91.9833C74.3414 92.0402 74.3302 92.0966 74.3084 92.1492C74.2867 92.2018 74.2547 92.2496 74.2145 92.2898C74.1742 92.3301 74.1265 92.362 74.0739 92.3837C74.0213 92.4055 73.9649 92.4167 73.908 92.4167ZM63.0747 91.55H73.4747V67.2833H63.0747V91.55Z" fill="#2D2D2D"/>
<path d="M85.4275 60.5777C85.3706 60.5777 85.3143 60.5666 85.2617 60.5448C85.2091 60.523 85.1614 60.491 85.1212 60.4507L57.0916 32.4203C57.0117 32.3388 56.9672 32.229 56.9678 32.1149C56.9684 32.0007 57.014 31.8914 57.0947 31.8107C57.1754 31.7299 57.2847 31.6843 57.3989 31.6838C57.513 31.6832 57.6228 31.7277 57.7043 31.8076L85.7339 59.838C85.7945 59.8986 85.8357 59.9758 85.8525 60.0598C85.8692 60.1439 85.8606 60.231 85.8278 60.3102C85.795 60.3894 85.7395 60.457 85.6682 60.5047C85.597 60.5523 85.5132 60.5777 85.4275 60.5777Z" fill="#2D2D2D"/>
<path d="M101.447 78.9833H104.647C104.807 79.0086 104.959 79.0692 105.092 79.1608C105.226 79.2523 105.337 79.3726 105.418 79.5127C105.499 79.6528 105.548 79.8093 105.561 79.9706C105.574 80.132 105.551 80.2942 105.493 80.4454C105.188 80.9794 104.7 81.384 104.118 81.5833H100.528L101.447 78.9833Z" fill="#8FD8F2"/>
<path d="M104.117 82.0167H100.528C100.459 82.0166 100.391 82 100.329 81.9681C100.267 81.9362 100.214 81.8901 100.174 81.8335C100.134 81.7769 100.108 81.7116 100.099 81.643C100.089 81.5743 100.096 81.5044 100.119 81.439L101.038 78.839C101.068 78.7546 101.123 78.6815 101.196 78.6297C101.269 78.578 101.357 78.5501 101.446 78.55H104.646C104.676 78.55 104.705 78.553 104.734 78.5589C104.973 78.6083 105.198 78.7103 105.392 78.8576C105.586 79.005 105.745 79.1938 105.857 79.4103C105.953 79.5977 106.006 79.8044 106.011 80.015C106.016 80.2257 105.974 80.4347 105.886 80.6265C105.537 81.257 104.97 81.7385 104.291 81.9807C104.236 82.0043 104.177 82.0166 104.117 82.0167ZM101.141 81.15H104.025C104.478 80.9929 104.859 80.6786 105.099 80.2643C105.132 80.1909 105.148 80.1108 105.145 80.0304C105.142 79.9499 105.121 79.8712 105.082 79.8005C105.033 79.7059 104.964 79.6228 104.881 79.5567C104.797 79.4906 104.701 79.4428 104.597 79.4167H101.753L101.141 81.15Z" fill="#2D2D2D"/>
<path d="M90.2603 83.3167L60.2061 83.5992L60.6862 89.3833L65.0984 89.3816L92.1349 90.1278L90.2603 83.3167Z" fill="#8FD8F2"/>
<path d="M92.1351 90.561H92.1233L65.0865 89.815L60.6855 89.8167C60.5768 89.8167 60.4721 89.7758 60.3921 89.7022C60.3122 89.6286 60.2628 89.5276 60.2538 89.4193L59.7739 83.6349C59.769 83.5755 59.7764 83.5158 59.7956 83.4594C59.8147 83.403 59.8453 83.3512 59.8855 83.3072C59.9256 83.2631 59.9743 83.2278 60.0287 83.2035C60.083 83.1791 60.1418 83.1662 60.2014 83.1656L90.2554 82.8833C90.3512 82.8818 90.4447 82.9123 90.5212 82.9699C90.5977 83.0275 90.6528 83.1091 90.6777 83.2016L92.5532 90.0126C92.5709 90.0769 92.5735 90.1445 92.5608 90.21C92.5481 90.2755 92.5204 90.3372 92.48 90.3903C92.4395 90.4434 92.3873 90.4864 92.3275 90.516C92.2677 90.5456 92.2019 90.561 92.1351 90.561ZM65.0984 88.9483L91.5622 89.6783L89.9304 83.753L60.6762 84.028L61.0841 88.95L65.0984 88.9483Z" fill="#0A3360"/>
<path d="M105.54 95.45C108.173 95.45 110.307 93.3159 110.307 90.6833C110.307 88.0508 108.173 85.9167 105.54 85.9167C102.908 85.9167 100.773 88.0508 100.773 90.6833C100.773 93.3159 102.908 95.45 105.54 95.45Z" fill="#8FD8F2"/>
<path d="M105.541 95.8833C104.512 95.8833 103.507 95.5784 102.652 95.007C101.797 94.4356 101.13 93.6235 100.737 92.6733C100.343 91.7231 100.24 90.6776 100.441 89.6689C100.641 88.6602 101.137 87.7336 101.864 87.0064C102.591 86.2791 103.518 85.7839 104.526 85.5833C105.535 85.3826 106.581 85.4856 107.531 85.8792C108.481 86.2727 109.293 86.9392 109.864 87.7944C110.436 88.6495 110.741 89.6549 110.741 90.6833C110.739 92.062 110.191 93.3838 109.216 94.3586C108.241 95.3335 106.919 95.8818 105.541 95.8833ZM105.541 86.35C104.684 86.35 103.846 86.6041 103.133 87.0803C102.421 87.5565 101.865 88.2332 101.537 89.025C101.209 89.8169 101.124 90.6881 101.291 91.5287C101.458 92.3693 101.871 93.1414 102.477 93.7475C103.083 94.3535 103.855 94.7662 104.695 94.9334C105.536 95.1006 106.407 95.0148 107.199 94.6868C107.991 94.3588 108.668 93.8034 109.144 93.0908C109.62 92.3782 109.874 91.5404 109.874 90.6833C109.873 89.5345 109.416 88.4331 108.603 87.6207C107.791 86.8083 106.69 86.3514 105.541 86.35Z" fill="#2D2D2D"/>
<path d="M105.837 88.6946C105.096 88.695 104.379 88.9573 103.813 89.4351C103.248 89.913 102.869 90.5755 102.744 91.3057C102.664 90.8539 102.684 90.3902 102.803 89.947C102.921 89.5039 103.136 89.0921 103.43 88.7406C103.725 88.3891 104.093 88.1064 104.509 87.9125C104.925 87.7186 105.378 87.6181 105.837 87.6181C106.295 87.6181 106.749 87.7186 107.164 87.9125C107.58 88.1064 107.948 88.3891 108.243 88.7406C108.538 89.0921 108.752 89.5039 108.871 89.947C108.989 90.3902 109.009 90.8539 108.929 91.3057C108.805 90.5755 108.426 89.913 107.86 89.4351C107.294 88.9573 106.577 88.695 105.837 88.6946Z" fill="#8FD8F2"/>
<path d="M102.744 91.7392C102.642 91.739 102.543 91.7028 102.465 91.637C102.387 91.5711 102.334 91.4798 102.317 91.379C102.282 91.18 102.264 90.9785 102.263 90.7764C102.264 89.8296 102.641 88.922 103.311 88.253C103.981 87.584 104.89 87.2083 105.836 87.2083C106.783 87.2083 107.691 87.584 108.361 88.253C109.032 88.922 109.409 89.8296 109.41 90.7764C109.409 90.9785 109.391 91.18 109.356 91.379C109.339 91.4798 109.286 91.5711 109.208 91.637C109.13 91.7028 109.031 91.739 108.929 91.7392C108.826 91.7392 108.727 91.703 108.649 91.637C108.571 91.5711 108.518 91.4795 108.501 91.3786C108.394 90.7493 108.068 90.178 107.58 89.7661C107.093 89.3542 106.475 89.1282 105.837 89.1282C105.198 89.1281 104.58 89.354 104.093 89.7658C103.605 90.1777 103.279 90.7489 103.172 91.3782C103.154 91.4791 103.102 91.5707 103.024 91.6368C102.946 91.7029 102.847 91.7391 102.744 91.7392ZM105.836 88.2615C106.455 88.2606 107.063 88.4206 107.601 88.7257C107.111 88.3025 106.485 88.0696 105.837 88.0694C105.189 88.0691 104.563 88.3016 104.072 88.7245C104.61 88.4201 105.218 88.2606 105.836 88.2615Z" fill="#0A3360"/>
<path d="M105.974 91.9833C106.453 91.9833 106.841 91.5953 106.841 91.1167C106.841 90.638 106.453 90.25 105.974 90.25C105.495 90.25 105.107 90.638 105.107 91.1167C105.107 91.5953 105.495 91.9833 105.974 91.9833Z" fill="#8FD8F2"/>
<path d="M105.974 92.4167C105.717 92.4167 105.465 92.3404 105.252 92.1976C105.038 92.0547 104.871 91.8517 104.773 91.6142C104.674 91.3766 104.649 91.1152 104.699 90.863C104.749 90.6109 104.873 90.3792 105.055 90.1974C105.236 90.0156 105.468 89.8918 105.72 89.8416C105.972 89.7915 106.234 89.8172 106.471 89.9156C106.709 90.014 106.912 90.1806 107.055 90.3944C107.198 90.6082 107.274 90.8595 107.274 91.1167C107.273 91.4613 107.136 91.7918 106.893 92.0355C106.649 92.2792 106.318 92.4163 105.974 92.4167ZM105.974 90.6833C105.888 90.6833 105.804 90.7087 105.733 90.7564C105.662 90.804 105.606 90.8717 105.573 90.9508C105.541 91.03 105.532 91.1171 105.549 91.2012C105.566 91.2853 105.607 91.3625 105.667 91.4231C105.728 91.4837 105.805 91.525 105.889 91.5417C105.973 91.5584 106.06 91.5498 106.14 91.517C106.219 91.4842 106.287 91.4287 106.334 91.3574C106.382 91.2862 106.407 91.2024 106.407 91.1167C106.407 91.0018 106.361 90.8917 106.28 90.8104C106.199 90.7292 106.089 90.6835 105.974 90.6833Z" fill="#0A3360"/>
<path d="M63.5448 85.9167H65.5195C67.3337 85.9167 68.8044 88.0508 68.8044 90.6833C68.8044 93.3159 67.3337 95.45 65.5195 95.45H63.5448C61.7306 95.45 60.2598 93.3159 60.2598 90.6833C60.2598 88.0508 61.7306 85.9167 63.5448 85.9167Z" fill="white"/>
<path d="M65.5197 95.8833H63.5451C61.4953 95.8833 59.8271 93.5508 59.8271 90.6833C59.8271 87.8159 61.4953 85.4833 63.5451 85.4833H65.5197C67.5704 85.4833 69.2386 87.8159 69.2386 90.6833C69.2386 93.5508 67.5704 95.8833 65.5197 95.8833ZM63.5451 86.35C61.9726 86.35 60.6938 88.2941 60.6938 90.6833C60.6938 93.0726 61.9727 95.0167 63.5451 95.0167H65.5197C67.0922 95.0167 68.3719 93.0726 68.3719 90.6833C68.3719 88.2941 67.0922 86.35 65.5197 86.35H63.5451Z" fill="#2D2D2D"/>
<path d="M80.9089 85.9167H82.8837C84.6979 85.9167 86.1687 88.0508 86.1687 90.6833C86.1687 93.3159 84.6979 95.45 82.8837 95.45H80.9089C79.0946 95.45 77.624 93.3159 77.624 90.6833C77.624 88.0508 79.0946 85.9167 80.9089 85.9167Z" fill="#8FD8F2"/>
<path d="M82.8838 95.8833H80.9093C78.8586 95.8833 77.1904 93.5508 77.1904 90.6833C77.1904 87.8159 78.8586 85.4833 80.9093 85.4833H82.8838C84.9337 85.4833 86.6018 87.8159 86.6018 90.6833C86.6018 93.5508 84.9337 95.8833 82.8838 95.8833ZM80.9093 86.35C79.3368 86.35 78.0571 88.2941 78.0571 90.6833C78.0571 93.0726 79.3368 95.0167 80.9093 95.0167H82.8838C84.4564 95.0167 85.7352 93.0726 85.7352 90.6833C85.7352 88.2941 84.4563 86.35 82.8838 86.35H80.9093Z" fill="#2D2D2D"/>
<path d="M80.9279 88.6946C79.8572 88.6946 78.9705 89.8239 78.7968 91.3057C78.7754 91.13 78.7644 90.9532 78.7637 90.7763C78.7637 89.0419 79.7326 87.6359 80.9279 87.6359C82.1232 87.6359 83.0921 89.0419 83.0921 90.7763C83.0914 90.9532 83.0803 91.13 83.059 91.3057C82.8853 89.8239 81.9985 88.6946 80.9279 88.6946Z" fill="#8FD8F2"/>
<path d="M78.7964 91.7392C78.69 91.739 78.5866 91.6997 78.5073 91.6287C78.428 91.5578 78.3776 91.4602 78.3656 91.3545C78.343 91.1626 78.3311 90.9696 78.3301 90.7764C78.3301 88.7723 79.471 87.2027 80.9275 87.2027C82.3841 87.2027 83.5258 88.7722 83.5258 90.7764C83.5251 90.9704 83.5126 91.1641 83.4885 91.3566C83.4763 91.462 83.4257 91.5592 83.3464 91.6297C83.2671 91.7003 83.1647 91.7392 83.0586 91.7391C82.9524 91.7391 82.8498 91.7001 82.7704 91.6295C82.691 91.5589 82.6403 91.4617 82.6278 91.3562C82.4797 90.0858 81.7484 89.1281 80.9275 89.1281C80.1073 89.1281 79.3761 90.0862 79.2263 91.3566C79.214 91.462 79.1634 91.5592 79.0842 91.6297C79.0049 91.7003 78.9025 91.7392 78.7964 91.7392ZM80.9276 88.0694C80.7573 88.0752 80.59 88.1146 80.435 88.1852C80.28 88.2559 80.1405 88.3564 80.0245 88.4811C80.3049 88.3404 80.6143 88.2672 80.928 88.2672C81.2417 88.2672 81.5511 88.3404 81.8315 88.4811C81.7153 88.3565 81.5756 88.256 81.4205 88.1853C81.2654 88.1147 81.0979 88.0753 80.9276 88.0694Z" fill="#0A3360"/>
<path d="M80.8403 91.9833C81.3189 91.9833 81.707 91.5953 81.707 91.1167C81.707 90.638 81.3189 90.25 80.8403 90.25C80.3617 90.25 79.9736 90.638 79.9736 91.1167C79.9736 91.5953 80.3617 91.9833 80.8403 91.9833Z" fill="#8FD8F2"/>
<path d="M80.841 92.4167C80.5839 92.4167 80.3326 92.3404 80.1188 92.1976C79.905 92.0547 79.7384 91.8517 79.64 91.6142C79.5416 91.3766 79.5158 91.1152 79.566 90.863C79.6162 90.6109 79.74 90.3792 79.9218 90.1974C80.1036 90.0156 80.3352 89.8918 80.5874 89.8416C80.8396 89.7915 81.101 89.8172 81.3385 89.9156C81.576 90.014 81.7791 90.1806 81.9219 90.3944C82.0648 90.6082 82.141 90.8595 82.141 91.1167C82.1406 91.4613 82.0036 91.7918 81.7598 92.0355C81.5161 92.2792 81.1857 92.4163 80.841 92.4167ZM80.841 90.6833C80.7553 90.6833 80.6715 90.7087 80.6003 90.7564C80.529 90.804 80.4735 90.8717 80.4407 90.9508C80.4079 91.03 80.3993 91.1171 80.416 91.2012C80.4327 91.2853 80.474 91.3625 80.5346 91.4231C80.5952 91.4837 80.6724 91.525 80.7565 91.5417C80.8405 91.5584 80.9277 91.5498 81.0068 91.517C81.086 91.4842 81.1537 91.4287 81.2013 91.3574C81.2489 91.2862 81.2743 91.2024 81.2743 91.1167C81.2742 91.0018 81.2285 90.8917 81.1473 90.8104C81.066 90.7292 80.9559 90.6835 80.841 90.6833Z" fill="#0A3360"/>
<path d="M79.4551 71.1833H95.5701C97.0558 71.1833 97.5797 71.4519 98.1211 72.3607L103.615 81.5833H85.3979L79.4551 71.1833Z" fill="#8FD8F2"/>
<path d="M103.616 82.0167H85.3982C85.3217 82.0166 85.2467 81.9964 85.1805 81.958C85.1144 81.9197 85.0596 81.8646 85.0215 81.7983L79.0784 71.3983C79.0408 71.3324 79.0212 71.2577 79.0215 71.1818C79.0218 71.1059 79.042 71.0314 79.0802 70.9658C79.1183 70.9001 79.173 70.8456 79.2388 70.8078C79.3046 70.7699 79.3791 70.75 79.4551 70.75H95.5705C97.176 70.75 97.859 71.0746 98.4937 72.1389L103.988 81.3616C104.027 81.4274 104.048 81.5024 104.049 81.5789C104.05 81.6555 104.03 81.7308 103.993 81.7974C103.955 81.8639 103.9 81.9193 103.834 81.9578C103.768 81.9963 103.692 82.0166 103.616 82.0167ZM85.6495 81.15H102.853L97.749 72.5824C97.3097 71.846 96.9526 71.6167 95.5705 71.6167H80.2015L85.6495 81.15Z" fill="#0A3360"/>
<path d="M88.2071 95.45C90.8397 95.45 92.9738 93.3159 92.9738 90.6833C92.9738 88.0508 90.8397 85.9167 88.2071 85.9167C85.5745 85.9167 83.4404 88.0508 83.4404 90.6833C83.4404 93.3159 85.5745 95.45 88.2071 95.45Z" fill="white"/>
<path d="M88.2078 95.8833C87.1794 95.8833 86.174 95.5784 85.3189 95.007C84.4637 94.4356 83.7972 93.6235 83.4036 92.6733C83.0101 91.7231 82.9071 90.6776 83.1077 89.6689C83.3084 88.6602 83.8036 87.7336 84.5309 87.0064C85.2581 86.2791 86.1846 85.7839 87.1933 85.5833C88.202 85.3826 89.2476 85.4856 90.1978 85.8792C91.1479 86.2727 91.9601 86.9392 92.5315 87.7944C93.1028 88.6495 93.4078 89.6549 93.4078 90.6833C93.4063 92.062 92.858 93.3838 91.8831 94.3586C90.9082 95.3335 89.5865 95.8818 88.2078 95.8833ZM88.2078 86.35C87.3508 86.35 86.513 86.6041 85.8003 87.0803C85.0877 87.5565 84.5323 88.2332 84.2043 89.025C83.8764 89.8169 83.7905 90.6881 83.9577 91.5287C84.125 92.3693 84.5377 93.1414 85.1437 93.7475C85.7497 94.3535 86.5218 94.7662 87.3624 94.9334C88.203 95.1006 89.0743 95.0148 89.8661 94.6868C90.6579 94.3588 91.3347 93.8034 91.8109 93.0908C92.287 92.3782 92.5411 91.5404 92.5411 90.6833C92.5398 89.5345 92.0828 88.4331 91.2705 87.6207C90.4581 86.8083 89.3567 86.3514 88.2078 86.35Z" fill="#2D2D2D"/>
<path d="M95.7101 71.1833H80.1738L85.3898 81.5833H103.607L98.3198 72.6696C98.0512 72.2167 97.6693 71.8415 97.2117 71.5809C96.7542 71.3204 96.2367 71.1833 95.7101 71.1833Z" fill="white"/>
<path d="M103.607 82.0167H85.3899C85.3095 82.0167 85.2307 81.9943 85.1622 81.9521C85.0938 81.9098 85.0384 81.8494 85.0023 81.7776L79.7862 71.3776C79.7531 71.3115 79.7374 71.238 79.7407 71.1642C79.7439 71.0903 79.766 71.0185 79.8049 70.9556C79.8437 70.8927 79.898 70.8408 79.9626 70.8048C80.0272 70.7688 80.0999 70.75 80.1738 70.75H95.7104C96.3117 70.7515 96.9024 70.9087 97.4249 71.2063C97.9475 71.5039 98.384 71.9318 98.6921 72.4482L103.979 81.3624C104.018 81.4282 104.039 81.5031 104.04 81.5796C104.041 81.6561 104.021 81.7314 103.983 81.7979C103.946 81.8644 103.891 81.9197 103.825 81.9581C103.759 81.9965 103.683 82.0167 103.607 82.0167ZM85.6574 81.15H102.846L97.9473 72.8904C97.716 72.5031 97.3885 72.1823 96.9965 71.9591C96.6045 71.7359 96.1614 71.6179 95.7104 71.6167H80.8763L85.6574 81.15Z" fill="#2D2D2D"/>
<path d="M112.907 86.7833H115.507V91.9833H98.0127H93.3201C93.1608 91.9833 93.003 91.952 92.8559 91.891C92.7087 91.83 92.575 91.7407 92.4624 91.6281C92.3497 91.5154 92.2604 91.3817 92.1994 91.2346C92.1385 91.0874 92.1071 90.9297 92.1071 90.7704V89.4715C92.1044 88.5529 91.7383 87.6727 91.0888 87.0232C90.4392 86.3737 89.559 86.0076 88.6404 86.0049C87.7219 86.0075 86.8417 86.3736 86.1921 87.0232C85.5426 87.6727 85.1765 88.5529 85.1738 89.4715V91.5841C85.1738 91.69 85.1318 91.7915 85.0569 91.8664C84.982 91.9413 84.8804 91.9834 84.7745 91.9834H67.488C67.4285 91.9826 67.3698 91.9694 67.3156 91.9447C67.2615 91.92 67.213 91.8844 67.1734 91.84C67.1338 91.7956 67.1038 91.7434 67.0854 91.6868C67.067 91.6302 67.0605 91.5704 67.0665 91.5112C67.3713 87.8371 65.67 86.0376 63.5504 86.0376C60.6462 86.0376 60.6181 89.3416 59.9495 90.243C59.9319 90.2668 59.9091 90.2861 59.8828 90.2996C59.8566 90.3131 59.8275 90.3203 59.798 90.3208C59.7685 90.3213 59.7392 90.315 59.7125 90.3024C59.6858 90.2898 59.6624 90.2712 59.644 90.2481L57.6718 87.7961C57.5221 87.6099 57.4404 87.3781 57.4404 87.1391V81.7337C57.4404 80.7242 58.0789 80.5962 59.2923 80.1278C60.8838 79.5197 62.266 78.4651 63.2728 77.0906C63.7838 76.3827 64.109 75.9115 65.0685 74.5546C65.7622 73.5837 66.6864 72.8007 67.7581 72.2759L67.1052 71.9083C67.0297 71.8662 66.9705 71.8 66.937 71.7203C66.9036 71.6406 66.8977 71.5519 66.9205 71.4685C66.9432 71.3851 66.9932 71.3117 67.0626 71.26C67.1319 71.2083 67.2165 71.1814 67.3029 71.1834C67.3029 71.1834 77.8343 71.1728 78.7883 71.1728C79.2143 71.1707 79.6302 71.3023 79.9775 71.5489C80.3248 71.7956 80.586 72.1449 80.7245 72.5477C81.1454 73.4177 84.7371 81.5834 84.7371 81.5834H102.973C105.623 81.7149 108.257 82.0748 110.845 82.6592C112.05 82.8266 113.189 83.3102 114.147 84.0608C114.932 84.7607 115.419 85.7351 115.507 86.7833" fill="#8FD8F2"/>
<path d="M115.508 92.4167H93.3206C92.8842 92.4161 92.4658 92.2425 92.1572 91.9339C91.8487 91.6253 91.675 91.2069 91.6745 90.7705V89.4714C91.6745 88.6669 91.3549 87.8953 90.786 87.3265C90.2172 86.7576 89.4456 86.438 88.6411 86.438C87.8367 86.438 87.0651 86.7576 86.4963 87.3265C85.9274 87.8953 85.6078 88.6669 85.6078 89.4714V91.5839C85.6076 91.8047 85.5198 92.0164 85.3637 92.1725C85.2075 92.3287 84.9958 92.4165 84.775 92.4167H67.4882C67.3705 92.4165 67.254 92.3919 67.1462 92.3445C67.0384 92.2971 66.9416 92.2279 66.8619 92.1412C66.78 92.0519 66.7175 91.9465 66.6784 91.8318C66.6394 91.7171 66.6246 91.5955 66.6351 91.4747C66.7576 90.7566 66.7316 90.021 66.5588 89.3132C66.386 88.6055 66.0701 87.9407 65.6305 87.3598C65.3667 87.0726 65.0449 86.8449 64.6863 86.6917C64.3278 86.5385 63.9408 86.4633 63.551 86.4711C61.8642 86.4711 61.3369 87.681 60.8232 89.2624C60.7107 89.6992 60.5336 90.1167 60.2976 90.501C60.2411 90.5781 60.1675 90.641 60.0827 90.6849C59.9978 90.7288 59.9039 90.7525 59.8084 90.7541C59.7124 90.7554 59.6174 90.7349 59.5305 90.6942C59.4436 90.6535 59.367 90.5937 59.3065 90.5192L57.3345 88.0677C57.1233 87.8044 57.0081 87.4769 57.0078 87.1393V81.7336C57.0078 80.5246 57.7966 80.2284 58.7953 79.853L59.1372 79.7235C60.6549 79.1427 61.9724 78.1358 62.9314 76.8239C63.2573 76.372 63.5129 76.0097 63.9208 75.43L64.7147 74.3043C65.2929 73.4911 66.0275 72.8015 66.8754 72.2756C66.7214 72.1864 66.601 72.0488 66.5331 71.8842C66.4652 71.7197 66.4534 71.5373 66.4997 71.3653C66.5451 71.1875 66.649 71.0302 66.7947 70.9186C66.9404 70.807 67.1193 70.7476 67.3028 70.75C67.302 70.75 77.8349 70.7394 78.7887 70.7394C79.2953 70.7399 79.7897 70.8953 80.2055 71.1847C80.6214 71.4741 80.9388 71.8837 81.1154 72.3585C81.4971 73.1486 84.395 79.729 85.0204 81.15H102.973C105.657 81.2837 108.324 81.6476 110.946 82.2376C112.57 82.626 113.724 83.0154 114.455 83.7563C115.325 84.534 115.858 85.6196 115.941 86.7833V91.9833C115.941 92.0402 115.93 92.0966 115.908 92.1492C115.886 92.2018 115.855 92.2496 115.814 92.2898C115.774 92.3301 115.726 92.362 115.674 92.3837C115.621 92.4055 115.565 92.4167 115.508 92.4167ZM88.6403 85.5714C89.6744 85.5724 90.6658 85.9837 91.3971 86.7148C92.1284 87.4459 92.5398 88.4373 92.5411 89.4714V90.7705C92.5413 90.9772 92.6235 91.1753 92.7697 91.3215C92.9158 91.4676 93.114 91.5498 93.3206 91.55H115.074V87.2166H112.908C112.793 87.2166 112.683 87.171 112.601 87.0897C112.52 87.0085 112.474 86.8982 112.474 86.7833C112.474 86.6684 112.52 86.5582 112.601 86.4769C112.683 86.3956 112.793 86.35 112.908 86.35H115.033C114.842 85.5958 114.436 84.9137 113.862 84.3877C112.955 83.6866 111.88 83.2358 110.745 83.0805C108.184 82.5047 105.579 82.1486 102.957 82.0162L84.7378 82.0167C84.6536 82.0166 84.5713 81.9921 84.5008 81.9462C84.4303 81.9002 84.3748 81.8347 84.3408 81.7577C84.3053 81.6764 80.7472 73.5895 80.335 72.7364C80.2323 72.4072 80.0267 72.1197 79.7483 71.9162C79.4699 71.7128 79.1336 71.604 78.7888 71.6061C77.906 71.6061 68.8212 71.615 67.4705 71.6167L67.9707 71.8985C68.0392 71.937 68.096 71.9934 68.1349 72.0617C68.1738 72.13 68.1934 72.2076 68.1916 72.2862C68.1897 72.3648 68.1666 72.4414 68.1245 72.5078C68.0825 72.5742 68.0231 72.6279 67.9529 72.6632C66.9453 73.157 66.0759 73.8928 65.4223 74.8049L64.6293 75.9288C64.2188 76.512 63.9624 76.8763 63.6247 77.3439C62.5683 78.7861 61.1184 79.8929 59.4488 80.5317L59.1001 80.6642C58.0438 81.0611 57.8745 81.1661 57.8745 81.7336V87.1392C57.8746 87.2792 57.9224 87.4151 58.01 87.5243L59.7543 89.6931C59.8355 89.4984 59.9159 89.2509 59.9989 88.9949C60.4373 87.6445 61.1 85.6044 63.551 85.6044C64.0608 85.5953 64.5667 85.6948 65.0352 85.8962C65.5036 86.0977 65.9238 86.3965 66.2678 86.7728C66.9491 87.512 67.7151 88.9407 67.4984 91.547L84.775 91.55L84.7411 89.4714C84.7422 88.4375 85.1533 87.4463 85.8843 86.7151C86.6153 85.984 87.6064 85.5727 88.6403 85.5714Z" fill="#2D2D2D"/>
<path d="M112.424 87.2167C112.367 87.2167 112.31 87.2055 112.258 87.1837C112.205 87.162 112.157 87.1301 112.117 87.0898C112.077 87.0496 112.045 87.0018 112.023 86.9492C112.001 86.8966 111.99 86.8402 111.99 86.7833V84.2883C111.99 84.2075 112.013 84.1282 112.055 84.0596C112.098 83.9909 112.159 83.9356 112.231 83.8998L113.443 83.301C113.546 83.2506 113.664 83.2431 113.773 83.28C113.881 83.317 113.971 83.3954 114.022 83.4982C114.072 83.6009 114.08 83.7196 114.044 83.8283C114.007 83.9369 113.929 84.0267 113.827 84.078L112.857 84.5574V86.7833C112.857 86.8402 112.846 86.8966 112.824 86.9492C112.802 87.0018 112.77 87.0496 112.73 87.0898C112.69 87.1301 112.642 87.162 112.589 87.1837C112.537 87.2055 112.48 87.2167 112.424 87.2167Z" fill="#2D2D2D"/>
<path d="M93.1663 83.6787C93.6983 83.5869 94.2422 83.589 94.7734 83.6849C95.9974 83.8768 99.1326 84.2881 99.1326 84.2881L99.8182 86.7833H93.7587C93.7587 86.7833 92.5646 85.4398 91.6094 84.3704C92.0722 84.0298 92.6034 83.7938 93.1663 83.6787Z" fill="white"/>
<path d="M99.8182 87.2167H93.7583C93.697 87.2167 93.6365 87.2037 93.5806 87.1786C93.5248 87.1535 93.4748 87.1169 93.4342 87.0711C93.4342 87.0711 92.2416 85.7279 91.2861 84.659C91.2453 84.6134 91.2146 84.5596 91.1961 84.5013C91.1776 84.443 91.1716 84.3814 91.1787 84.3206C91.1857 84.2598 91.2055 84.2012 91.2369 84.1486C91.2683 84.0961 91.3104 84.0508 91.3606 84.0157C91.8737 83.6404 92.4618 83.3803 93.0846 83.2532C93.6654 83.1513 94.2596 83.1524 94.8399 83.2566C96.0621 83.4483 99.1885 83.8583 99.1894 83.8587C99.2739 83.8698 99.3533 83.9056 99.4176 83.9616C99.4819 84.0176 99.5282 84.0914 99.5508 84.1736L100.236 86.6686C100.254 86.733 100.256 86.8005 100.244 86.8659C100.231 86.9314 100.203 86.993 100.163 87.046C100.122 87.099 100.07 87.142 100.01 87.1716C99.9507 87.2012 99.8849 87.2166 99.8182 87.2167ZM93.9529 86.35H99.2494L98.7907 84.6801C97.9892 84.5744 95.7091 84.2701 94.7062 84.1131C94.2246 84.0246 93.7313 84.0217 93.2487 84.1046C92.9067 84.1709 92.5769 84.2922 92.2737 84.4639C92.9534 85.226 93.6669 86.0284 93.9529 86.35Z" fill="#2D2D2D"/>
<path d="M65.0119 81.1176L63.2598 77.0687C63.7008 76.4414 64.0528 75.9235 64.9281 74.6593C65.6213 73.6653 66.5517 72.8602 67.6348 72.3167L66.9779 71.9387C66.9016 71.8949 66.842 71.8271 66.8082 71.746C66.7744 71.6648 66.7684 71.5747 66.791 71.4897C66.8137 71.4048 66.8638 71.3297 66.9336 71.2761C67.0033 71.2225 67.0888 71.1935 67.1767 71.1935C67.1767 71.1935 76.4428 71.185 79.1471 71.1833H79.168C79.7038 71.1497 80.2407 71.2274 80.7448 71.4116C80.8201 71.4439 80.8931 71.4814 80.9631 71.524C80.9909 71.542 81.0159 71.5654 81.0424 71.5851C81.3457 71.8439 81.5884 72.1663 81.7533 72.5294C81.8053 72.6343 81.8572 72.7382 81.9104 72.8598L81.9222 72.8856C81.9997 73.0629 82.2023 73.5106 82.4478 74.0527C82.9036 75.073 83.5089 76.4394 84.0836 77.7402C84.8878 79.6154 85.7781 81.5833 85.7781 81.5833H65.721C65.5703 81.5833 65.4228 81.5392 65.2968 81.4565C65.1708 81.3737 65.0718 81.2559 65.0119 81.1176Z" fill="white"/>
<path d="M85.7776 82.0167H65.7207C65.4855 82.0166 65.2554 81.9478 65.0587 81.8187C64.862 81.6896 64.7074 81.5059 64.6137 81.2901L62.8617 77.2411C62.8323 77.173 62.8209 77.0985 62.8284 77.0248C62.836 76.951 62.8623 76.8803 62.9049 76.8196C63.1732 76.4375 63.4085 76.0964 63.7504 75.6017L64.5714 74.4126C65.1539 73.5733 65.8998 72.8602 66.7643 72.3158L66.7617 72.3145C66.6028 72.2231 66.4785 72.0817 66.4081 71.9124C66.3376 71.7431 66.3251 71.5553 66.3724 71.3781C66.4197 71.2009 66.5241 71.0443 66.6695 70.9326C66.8149 70.8208 66.9931 70.7602 67.1765 70.7602L79.1465 70.75C79.7502 70.7111 80.3554 70.8017 80.9213 71.0158C81.024 71.0587 81.1226 71.111 81.2158 71.1719L81.2954 71.2333C81.6564 71.5336 81.9456 71.911 82.1417 72.3378C82.2043 72.4652 82.2551 72.5675 82.3068 72.6865C82.3956 72.8883 82.5979 73.3339 82.8416 73.8735C83.2995 74.8967 83.9047 76.2636 84.4793 77.5648C85.2834 79.4404 86.172 81.4035 86.172 81.4048C86.2019 81.4707 86.2148 81.5431 86.2095 81.6153C86.2042 81.6876 86.1808 81.7573 86.1416 81.8182C86.1024 81.8791 86.0485 81.9291 85.9849 81.9638C85.9213 81.9985 85.8501 82.0166 85.7776 82.0167ZM65.4093 80.9448C65.4355 81.0057 65.4789 81.0575 65.5343 81.094C65.5896 81.1305 65.6545 81.15 65.7207 81.15H85.1073C84.7815 80.4209 84.2144 79.1458 83.6846 77.9106C83.1125 76.6148 82.5073 75.2496 82.052 74.2294C81.8057 73.6877 81.6034 73.2379 81.5247 73.0601C81.4663 72.9281 81.4215 72.8367 81.3766 72.7457C81.2375 72.4302 81.0306 72.1492 80.7706 71.9226L80.6394 71.8414C80.6335 71.8384 80.5514 71.7995 80.5455 71.7961C80.1023 71.6468 79.6342 71.5859 79.1676 71.6167L67.1765 71.6268L67.8502 71.9408C67.9178 71.9796 67.9737 72.036 68.012 72.1039C68.0502 72.1718 68.0695 72.2488 68.0677 72.3268C68.0658 72.4047 68.043 72.4807 68.0016 72.5468C67.9602 72.6128 67.9017 72.6665 67.8324 72.7021C66.8131 73.2138 65.9373 73.9712 65.284 74.906L64.4639 76.0939C64.1804 76.5039 63.9696 76.809 63.7538 77.1192L65.4093 80.9448Z" fill="#2D2D2D"/>
<path d="M73.0203 81.759C73.0014 81.759 72.9824 81.7577 72.9636 81.7551C72.8496 81.7403 72.7461 81.6808 72.676 81.5897C72.6058 81.4986 72.5747 81.3834 72.5895 81.2693L73.9209 71.1004C73.9373 70.9872 73.9972 70.8848 74.0879 70.8151C74.1787 70.7454 74.293 70.7138 74.4067 70.7271C74.5207 70.742 74.6242 70.8015 74.6943 70.8926C74.7645 70.9837 74.7956 71.0989 74.7808 71.213L73.4494 81.3819C73.4358 81.4861 73.3847 81.5818 73.3058 81.6511C73.2268 81.7205 73.1254 81.7588 73.0203 81.759Z" fill="#2D2D2D"/>
<path d="M84.4833 78.9833H79.659C79.4991 79.0086 79.3468 79.0692 79.2133 79.1608C79.0798 79.2523 78.9685 79.3726 78.8874 79.5127C78.8063 79.6528 78.7576 79.8093 78.7447 79.9706C78.7318 80.132 78.7551 80.2942 78.8129 80.4454C79.1173 80.9794 79.6061 81.384 80.1875 81.5833H85.4016L84.4833 78.9833Z" fill="#8FD8F2"/>
<path d="M85.4015 82.0167H80.188C80.1283 82.0166 80.0693 82.0043 80.0145 81.9807C79.3356 81.7385 78.7683 81.257 78.4191 80.6265C78.3319 80.4347 78.2892 80.2257 78.2944 80.015C78.2995 79.8044 78.3523 79.5977 78.4487 79.4103C78.5606 79.1938 78.7194 79.005 78.9135 78.8576C79.1077 78.7103 79.3323 78.6083 79.571 78.5589C79.5999 78.553 79.6294 78.55 79.659 78.55H84.4832C84.5728 78.5501 84.6602 78.578 84.7334 78.6297C84.8066 78.6814 84.862 78.7546 84.892 78.839L85.8103 81.439C85.8333 81.5044 85.8403 81.5743 85.8307 81.643C85.8211 81.7116 85.7952 81.7769 85.7552 81.8335C85.7152 81.8901 85.6622 81.9362 85.6006 81.9681C85.5391 82 85.4708 82.0166 85.4015 82.0167ZM80.2802 81.15H84.7887L84.1768 79.4167H79.7081C79.6048 79.4428 79.5081 79.4906 79.4246 79.5567C79.341 79.6229 79.2723 79.7059 79.2231 79.8005C79.1847 79.8713 79.1632 79.9499 79.1603 80.0304C79.1573 80.1109 79.1731 80.1909 79.2062 80.2643C79.4466 80.6786 79.8277 80.9929 80.2802 81.15Z" fill="#2D2D2D"/>
<path d="M88.2071 95.45C90.8397 95.45 92.9738 93.3159 92.9738 90.6833C92.9738 88.0508 90.8397 85.9167 88.2071 85.9167C85.5745 85.9167 83.4404 88.0508 83.4404 90.6833C83.4404 93.3159 85.5745 95.45 88.2071 95.45Z" fill="white"/>
<path d="M88.2078 95.8833C87.1794 95.8833 86.174 95.5784 85.3189 95.007C84.4637 94.4356 83.7972 93.6235 83.4036 92.6733C83.0101 91.7231 82.9071 90.6776 83.1077 89.6689C83.3084 88.6602 83.8036 87.7336 84.5309 87.0064C85.2581 86.2791 86.1846 85.7839 87.1933 85.5833C88.202 85.3826 89.2476 85.4856 90.1978 85.8792C91.1479 86.2727 91.9601 86.9392 92.5315 87.7944C93.1028 88.6495 93.4078 89.6549 93.4078 90.6833C93.4063 92.062 92.858 93.3838 91.8831 94.3586C90.9082 95.3335 89.5865 95.8818 88.2078 95.8833ZM88.2078 86.35C87.3508 86.35 86.513 86.6041 85.8003 87.0803C85.0877 87.5565 84.5323 88.2332 84.2043 89.025C83.8764 89.8169 83.7905 90.6881 83.9577 91.5287C84.125 92.3693 84.5377 93.1414 85.1437 93.7475C85.7497 94.3535 86.5218 94.7662 87.3624 94.9334C88.203 95.1006 89.0743 95.0148 89.8661 94.6868C90.6579 94.3588 91.3347 93.8034 91.8109 93.0908C92.287 92.3782 92.5411 91.5404 92.5411 90.6833C92.5398 89.5345 92.0828 88.4331 91.2705 87.6207C90.4581 86.8083 89.3567 86.3514 88.2078 86.35Z" fill="#2D2D2D"/>
<path d="M112.908 87.2167H99.9079C99.793 87.2167 99.6828 87.171 99.6015 87.0897C99.5203 87.0085 99.4746 86.8983 99.4746 86.7833C99.4746 86.6684 99.5203 86.5582 99.6015 86.4769C99.6828 86.3957 99.793 86.35 99.9079 86.35H112.908C113.023 86.35 113.133 86.3957 113.214 86.4769C113.296 86.5582 113.341 86.6684 113.341 86.7833C113.341 86.8983 113.296 87.0085 113.214 87.0897C113.133 87.171 113.023 87.2167 112.908 87.2167Z" fill="#2D2D2D"/>
</svg>
