<svg width="17" height="19" viewBox="0 0 17 19" fill="none" xmlns="http://www.w3.org/2000/svg">
<path d="M16.4844 16.0576L16.4824 16.0508C16.0789 15.0567 15.4046 14.1956 14.5362 13.5656C13.6677 12.9356 12.6399 12.5619 11.5696 12.4869C11.5261 12.4849 11.3813 12.4792 10.7781 12.4753C10.7151 12.4753 10.5178 12.2536 10.5178 11.8695V11.2541C11.2953 10.5036 11.8451 9.54874 12.1038 8.49946C12.1796 8.4723 12.252 8.43642 12.3195 8.39255C12.6995 8.10366 12.9533 7.67916 13.0279 7.20764C13.1484 6.77471 13.1021 6.31231 12.8982 5.91186C13.0486 5.50119 13.1249 5.06709 13.1237 4.62975C13.1655 3.92046 12.9655 3.21797 12.5566 2.63697C12.1476 2.05597 11.5537 1.63079 10.8719 1.43086C10.6902 1.38263 10.5044 1.35122 10.317 1.33702C9.64995 0.806437 8.82455 0.514306 7.97225 0.50715C7.35069 0.470349 6.7301 0.593796 6.16994 0.865661C5.60978 1.13753 5.12882 1.5487 4.77317 2.05977C4.14322 3.1652 3.9362 4.4618 4.19062 5.70843C4.02247 5.90979 3.90819 6.15055 3.85852 6.40815C3.80885 6.66575 3.82541 6.93174 3.90664 7.18119C3.94129 7.45848 4.04415 7.72286 4.20601 7.95066C4.36786 8.17847 4.58366 8.3626 4.83411 8.48658C5.0924 9.54164 5.64369 10.5022 6.42439 11.2574V11.8728C6.42439 12.2425 6.23671 12.4796 6.13842 12.4806C5.39525 12.4873 5.31736 12.494 5.29616 12.496C4.23793 12.5812 3.22442 12.9598 2.36955 13.5893C1.51468 14.2188 0.852334 15.0743 0.456954 16.0596C0.386721 16.2425 0.353804 16.4376 0.360144 16.6334C0.360144 17.3171 1.17733 17.7684 3.01731 18.0964C4.71014 18.3646 6.42141 18.4996 8.13535 18.5C8.24515 18.5 8.35543 18.499 8.46483 18.498C10.2935 18.5154 12.1204 18.3808 13.9268 18.0954C15.7599 17.7693 16.5772 17.3185 16.5762 16.6576C16.5896 16.4533 16.5583 16.2485 16.4844 16.0576ZM10.5835 2.42561C11.0448 2.56446 11.4449 2.8562 11.7183 3.25279C11.9916 3.64939 12.1217 4.12722 12.0873 4.60765C12.0894 4.79315 12.0719 4.97836 12.035 5.16017C11.8988 4.73532 11.6385 4.36094 11.2878 4.0852C10.937 3.80947 10.5118 3.64498 10.0668 3.61289H10.0658C9.74513 3.62691 9.43895 3.7504 9.19828 3.96278C8.78882 4.2737 8.288 4.44041 7.77388 4.43692H7.76397C7.63575 4.44564 7.51427 4.44901 7.37207 4.45039C7.08821 4.47503 6.80324 4.41777 6.55092 4.28541C6.40095 4.18406 6.2253 4.12737 6.04438 4.12191C5.84875 4.13323 5.66027 4.19941 5.50052 4.31288C5.34076 4.42636 5.2162 4.58253 5.14109 4.76351C5.13194 4.01093 5.31213 3.26813 5.66507 2.60338C5.92082 2.244 6.26586 1.95752 6.66613 1.77221C7.06641 1.58691 7.50809 1.50917 7.94758 1.54669C8.56012 1.54781 9.15537 1.74989 9.642 2.1219C9.73656 2.21596 9.85016 2.28868 9.97517 2.33517C10.1002 2.38166 10.2337 2.40084 10.3667 2.39143C10.4406 2.38849 10.5142 2.4001 10.5835 2.42561ZM5.68617 6.77334C5.70512 6.23309 5.83956 5.70316 6.08045 5.21922C6.48486 5.43294 6.94143 5.52805 7.39754 5.4936C7.53101 5.4936 7.67499 5.48825 7.8044 5.47854C8.54705 5.47488 9.26751 5.22494 9.85286 4.76787C9.91388 4.7077 9.9925 4.66854 10.0773 4.6561C10.6734 4.6561 11.1979 5.45 11.2724 6.46606C11.273 6.63166 11.3392 6.79029 11.4566 6.90712C11.5739 7.02395 11.7329 7.08944 11.8985 7.08923H11.8994C11.9307 7.08793 11.9618 7.08405 11.9924 7.07764C11.9583 7.2346 11.8805 7.37869 11.7679 7.49322C11.6472 7.48848 11.5276 7.51747 11.4224 7.57695C11.353 7.62101 11.2932 7.67867 11.2466 7.74644C11.2001 7.81421 11.1677 7.89071 11.1514 7.97132C10.7286 9.82428 9.65062 11.0683 8.4676 11.0683C7.28904 11.0683 6.21491 9.82676 5.79061 7.97677C5.77826 7.89924 5.7507 7.82492 5.70951 7.75809C5.66832 7.69126 5.61432 7.63323 5.55062 7.58735C5.43881 7.51162 5.30436 7.47664 5.16982 7.48826C5.13336 7.45177 5.10206 7.41046 5.07678 7.36549C5.15697 7.37195 5.23762 7.3612 5.31332 7.33397C5.38902 7.30673 5.45803 7.26364 5.51573 7.20758C5.57343 7.15151 5.61848 7.08376 5.64788 7.00887C5.67727 6.93399 5.69033 6.85368 5.68617 6.77334ZM7.4672 11.9213C8.11512 12.1651 8.82959 12.1651 9.47751 11.9213C9.46152 12.2506 9.54831 12.5766 9.72584 12.8544C9.90337 13.1321 10.1629 13.3478 10.4684 13.4715C10.2349 13.7806 9.93275 14.0312 9.58586 14.2036C9.23897 14.376 8.85678 14.4655 8.46941 14.465C8.08204 14.4646 7.70007 14.3742 7.3536 14.2009C7.00713 14.0277 6.70562 13.7763 6.47284 13.4667C6.77769 13.3431 7.03687 13.1282 7.21488 12.8516C7.39289 12.5749 7.48102 12.25 7.4672 11.9213ZM7.0757 15.2327C7.90897 15.5904 8.84788 15.6141 9.69815 15.2989C10.5484 14.9837 11.245 14.3537 11.6437 13.5392C12.4888 13.6292 13.2939 13.9454 13.9743 14.4546C14.6546 14.9638 15.185 15.6472 15.5096 16.4326C15.5233 16.4722 15.5333 16.5131 15.5393 16.5546C15.1155 16.8826 12.6934 17.4642 8.47097 17.4642C4.2583 17.4642 1.83201 16.8826 1.40078 16.5536C1.40584 16.5162 1.41426 16.4793 1.42594 16.4433C1.73874 15.6483 2.26617 14.9558 2.94945 14.4429C3.63274 13.9301 4.44502 13.617 5.29576 13.5387C5.66589 14.2991 6.29789 14.9008 7.0757 15.2327Z" fill="#2D2D2D"/>
</svg>
